<svg xmlns="http://www.w3.org/2000/svg" xmlns:xlink="http://www.w3.org/1999/xlink" width="100" zoomAndPan="magnify" viewBox="0 0 75 74.999997" height="100" preserveAspectRatio="xMidYMid meet" version="1.0"><defs><clipPath id="92faa65a73"><path d="M 0 10.546875 L 75 10.546875 L 75 64.546875 L 0 64.546875 Z M 0 10.546875 " clip-rule="nonzero"/></clipPath></defs><rect x="-7.5" width="90" fill="#ffffff" y="-7.5" height="89.999996" fill-opacity="1"/><rect x="-7.5" width="90" fill="#ffffff" y="-7.5" height="89.999996" fill-opacity="1"/><g clip-path="url(#92faa65a73)"><path fill="#000000" d="M 37.5 10.417969 C 23.425781 10.417969 10.296875 19.519531 0.535156 36.042969 C 0.0507812 36.863281 0.0507812 37.882812 0.535156 38.699219 C 10.296875 55.226562 23.425781 64.328125 37.5 64.328125 C 51.574219 64.328125 64.703125 55.226562 74.464844 38.699219 C 74.949219 37.882812 74.949219 36.863281 74.464844 36.042969 C 64.703125 19.519531 51.574219 10.417969 37.5 10.417969 Z M 37.5 59.113281 C 25.707031 59.113281 14.503906 51.410156 5.824219 37.371094 C 14.503906 23.335938 25.707031 15.632812 37.5 15.632812 C 49.292969 15.632812 60.496094 23.335938 69.175781 37.371094 C 60.496094 51.410156 49.292969 59.113281 37.5 59.113281 Z M 37.5 24.328125 C 30.320312 24.328125 24.480469 30.179688 24.480469 37.371094 C 24.480469 44.566406 30.320312 50.417969 37.5 50.417969 C 44.679688 50.417969 50.519531 44.566406 50.519531 37.371094 C 50.519531 30.179688 44.679688 24.328125 37.5 24.328125 Z M 37.5 45.199219 C 33.195312 45.199219 29.6875 41.6875 29.6875 37.371094 C 29.6875 33.058594 33.195312 29.546875 37.5 29.546875 C 41.804688 29.546875 45.3125 33.058594 45.3125 37.371094 C 45.3125 41.6875 41.804688 45.199219 37.5 45.199219 Z M 37.5 45.199219 " fill-opacity="1" fill-rule="nonzero"/></g></svg>