<svg xmlns="http://www.w3.org/2000/svg" data-fg-d3bl11="0.8:3.10203:/src/app/App.tsx:120:13:3547:1271:e:LineChart::::::XXy" class="recharts-surface" width="500" height="700" viewBox="0 0 500 700" style="width: 100%; height: 100%;"><title/><desc/><defs><clipPath id="recharts2-clip"><rect x="150" y="20" height="630" width="310"/></clipPath></defs><g class="recharts-cartesian-grid"><g class="recharts-cartesian-grid-horizontal"><line stroke-dasharray="3 3" stroke="#e0e0e0" data-fg-d3bl12="0.8:3.10203:/src/app/App.tsx:125:15:3712:56:e:CartesianGrid::::::Ctda" fill="none" x="150" y="20" width="310" height="630" x1="150" y1="20" x2="460" y2="20"/><line stroke-dasharray="3 3" stroke="#e0e0e0" data-fg-d3bl12="0.8:3.10203:/src/app/App.tsx:125:15:3712:56:e:CartesianGrid::::::Ctda" fill="none" x="150" y="20" width="310" height="630" x1="150" y1="77.27272727272728" x2="460" y2="77.27272727272728"/><line stroke-dasharray="3 3" stroke="#e0e0e0" data-fg-d3bl12="0.8:3.10203:/src/app/App.tsx:125:15:3712:56:e:CartesianGrid::::::Ctda" fill="none" x="150" y="20" width="310" height="630" x1="150" y1="134.54545454545456" x2="460" y2="134.54545454545456"/><line stroke-dasharray="3 3" stroke="#e0e0e0" data-fg-d3bl12="0.8:3.10203:/src/app/App.tsx:125:15:3712:56:e:CartesianGrid::::::Ctda" fill="none" x="150" y="20" width="310" height="630" x1="150" y1="191.8181818181818" x2="460" y2="191.8181818181818"/><line stroke-dasharray="3 3" stroke="#e0e0e0" data-fg-d3bl12="0.8:3.10203:/src/app/App.tsx:125:15:3712:56:e:CartesianGrid::::::Ctda" fill="none" x="150" y="20" width="310" height="630" x1="150" y1="249.0909090909091" x2="460" y2="249.0909090909091"/><line stroke-dasharray="3 3" stroke="#e0e0e0" data-fg-d3bl12="0.8:3.10203:/src/app/App.tsx:125:15:3712:56:e:CartesianGrid::::::Ctda" fill="none" x="150" y="20" width="310" height="630" x1="150" y1="306.3636363636364" x2="460" y2="306.3636363636364"/><line stroke-dasharray="3 3" stroke="#e0e0e0" data-fg-d3bl12="0.8:3.10203:/src/app/App.tsx:125:15:3712:56:e:CartesianGrid::::::Ctda" fill="none" x="150" y="20" width="310" height="630" x1="150" y1="363.6363636363636" x2="460" y2="363.6363636363636"/><line stroke-dasharray="3 3" stroke="#e0e0e0" data-fg-d3bl12="0.8:3.10203:/src/app/App.tsx:125:15:3712:56:e:CartesianGrid::::::Ctda" fill="none" x="150" y="20" width="310" height="630" x1="150" y1="420.90909090909093" x2="460" y2="420.90909090909093"/><line stroke-dasharray="3 3" stroke="#e0e0e0" data-fg-d3bl12="0.8:3.10203:/src/app/App.tsx:125:15:3712:56:e:CartesianGrid::::::Ctda" fill="none" x="150" y="20" width="310" height="630" x1="150" y1="478.1818181818182" x2="460" y2="478.1818181818182"/><line stroke-dasharray="3 3" stroke="#e0e0e0" data-fg-d3bl12="0.8:3.10203:/src/app/App.tsx:125:15:3712:56:e:CartesianGrid::::::Ctda" fill="none" x="150" y="20" width="310" height="630" x1="150" y1="535.4545454545455" x2="460" y2="535.4545454545455"/><line stroke-dasharray="3 3" stroke="#e0e0e0" data-fg-d3bl12="0.8:3.10203:/src/app/App.tsx:125:15:3712:56:e:CartesianGrid::::::Ctda" fill="none" x="150" y="20" width="310" height="630" x1="150" y1="592.7272727272727" x2="460" y2="592.7272727272727"/><line stroke-dasharray="3 3" stroke="#e0e0e0" data-fg-d3bl12="0.8:3.10203:/src/app/App.tsx:125:15:3712:56:e:CartesianGrid::::::Ctda" fill="none" x="150" y="20" width="310" height="630" x1="150" y1="650" x2="460" y2="650"/></g><g class="recharts-cartesian-grid-vertical"><line stroke-dasharray="3 3" stroke="#e0e0e0" data-fg-d3bl12="0.8:3.10203:/src/app/App.tsx:125:15:3712:56:e:CartesianGrid::::::Ctda" fill="none" x="150" y="20" width="310" height="630" x1="150" y1="20" x2="150" y2="650"/><line stroke-dasharray="3 3" stroke="#e0e0e0" data-fg-d3bl12="0.8:3.10203:/src/app/App.tsx:125:15:3712:56:e:CartesianGrid::::::Ctda" fill="none" x="150" y="20" width="310" height="630" x1="227.5" y1="20" x2="227.5" y2="650"/><line stroke-dasharray="3 3" stroke="#e0e0e0" data-fg-d3bl12="0.8:3.10203:/src/app/App.tsx:125:15:3712:56:e:CartesianGrid::::::Ctda" fill="none" x="150" y="20" width="310" height="630" x1="305" y1="20" x2="305" y2="650"/><line stroke-dasharray="3 3" stroke="#e0e0e0" data-fg-d3bl12="0.8:3.10203:/src/app/App.tsx:125:15:3712:56:e:CartesianGrid::::::Ctda" fill="none" x="150" y="20" width="310" height="630" x1="382.5" y1="20" x2="382.5" y2="650"/><line stroke-dasharray="3 3" stroke="#e0e0e0" data-fg-d3bl12="0.8:3.10203:/src/app/App.tsx:125:15:3712:56:e:CartesianGrid::::::Ctda" fill="none" x="150" y="20" width="310" height="630" x1="460" y1="20" x2="460" y2="650"/></g></g><g class="recharts-layer recharts-cartesian-axis recharts-xAxis xAxis"><line orientation="bottom" width="310" height="30" stroke="#999" data-fg-d3bl13="0.8:3.10203:/src/app/App.tsx:126:15:3783:182:e:XAxis::::::DYBJ" x="150" y="650" class="recharts-cartesian-axis-line" fill="none" x1="150" y1="650" x2="460" y2="650"/><g class="recharts-cartesian-axis-ticks"><g class="recharts-layer recharts-cartesian-axis-tick"><line orientation="bottom" width="310" height="30" stroke="#999" data-fg-d3bl13="0.8:3.10203:/src/app/App.tsx:126:15:3783:182:e:XAxis::::::DYBJ" x="150" y="650" class="recharts-cartesian-axis-tick-line" fill="none" x1="150" y1="656" x2="150" y2="650"/><text orientation="bottom" width="310" height="30" stroke="none" data-fg-d3bl13="0.8:3.10203:/src/app/App.tsx:126:15:3783:182:e:XAxis::::::DYBJ" font-size="12" x="150" y="658" class="recharts-text recharts-cartesian-axis-tick-value" text-anchor="middle" fill="#666"><tspan x="150" dy="0.71em">$0K</tspan></text></g><g class="recharts-layer recharts-cartesian-axis-tick"><line orientation="bottom" width="310" height="30" stroke="#999" data-fg-d3bl13="0.8:3.10203:/src/app/App.tsx:126:15:3783:182:e:XAxis::::::DYBJ" x="150" y="650" class="recharts-cartesian-axis-tick-line" fill="none" x1="227.5" y1="656" x2="227.5" y2="650"/><text orientation="bottom" width="310" height="30" stroke="none" data-fg-d3bl13="0.8:3.10203:/src/app/App.tsx:126:15:3783:182:e:XAxis::::::DYBJ" font-size="12" x="227.5" y="658" class="recharts-text recharts-cartesian-axis-tick-value" text-anchor="middle" fill="#666"><tspan x="227.5" dy="0.71em">$20K</tspan></text></g><g class="recharts-layer recharts-cartesian-axis-tick"><line orientation="bottom" width="310" height="30" stroke="#999" data-fg-d3bl13="0.8:3.10203:/src/app/App.tsx:126:15:3783:182:e:XAxis::::::DYBJ" x="150" y="650" class="recharts-cartesian-axis-tick-line" fill="none" x1="305" y1="656" x2="305" y2="650"/><text orientation="bottom" width="310" height="30" stroke="none" data-fg-d3bl13="0.8:3.10203:/src/app/App.tsx:126:15:3783:182:e:XAxis::::::DYBJ" font-size="12" x="305" y="658" class="recharts-text recharts-cartesian-axis-tick-value" text-anchor="middle" fill="#666"><tspan x="305" dy="0.71em">$40K</tspan></text></g><g class="recharts-layer recharts-cartesian-axis-tick"><line orientation="bottom" width="310" height="30" stroke="#999" data-fg-d3bl13="0.8:3.10203:/src/app/App.tsx:126:15:3783:182:e:XAxis::::::DYBJ" x="150" y="650" class="recharts-cartesian-axis-tick-line" fill="none" x1="382.5" y1="656" x2="382.5" y2="650"/><text orientation="bottom" width="310" height="30" stroke="none" data-fg-d3bl13="0.8:3.10203:/src/app/App.tsx:126:15:3783:182:e:XAxis::::::DYBJ" font-size="12" x="382.5" y="658" class="recharts-text recharts-cartesian-axis-tick-value" text-anchor="middle" fill="#666"><tspan x="382.5" dy="0.71em">$60K</tspan></text></g><g class="recharts-layer recharts-cartesian-axis-tick"><line orientation="bottom" width="310" height="30" stroke="#999" data-fg-d3bl13="0.8:3.10203:/src/app/App.tsx:126:15:3783:182:e:XAxis::::::DYBJ" x="150" y="650" class="recharts-cartesian-axis-tick-line" fill="none" x1="460" y1="656" x2="460" y2="650"/><text orientation="bottom" width="310" height="30" stroke="none" data-fg-d3bl13="0.8:3.10203:/src/app/App.tsx:126:15:3783:182:e:XAxis::::::DYBJ" font-size="12" x="460" y="658" class="recharts-text recharts-cartesian-axis-tick-value" text-anchor="middle" fill="#666"><tspan x="460" dy="0.71em">$80K</tspan></text></g></g></g><g class="recharts-layer recharts-cartesian-axis recharts-yAxis yAxis"><line orientation="left" width="70" height="630" stroke="#999" data-fg-d3bl14="0.8:3.10203:/src/app/App.tsx:132:15:3980:199:e:YAxis::::::DEHm" x="80" y="20" class="recharts-cartesian-axis-line" fill="none" x1="150" y1="20" x2="150" y2="650"/><g class="recharts-cartesian-axis-ticks"><g class="recharts-layer recharts-cartesian-axis-tick"><line orientation="left" width="70" height="630" stroke="#999" data-fg-d3bl14="0.8:3.10203:/src/app/App.tsx:132:15:3980:199:e:YAxis::::::DEHm" x="80" y="20" class="recharts-cartesian-axis-tick-line" fill="none" x1="144" y1="20" x2="150" y2="20"/><text orientation="left" width="70" height="630" stroke="none" data-fg-d3bl14="0.8:3.10203:/src/app/App.tsx:132:15:3980:199:e:YAxis::::::DEHm" font-size="13" x="142" y="20" class="recharts-text recharts-cartesian-axis-tick-value" text-anchor="end" fill="#666"><tspan x="142" dy="0.355em">1月</tspan></text></g><g class="recharts-layer recharts-cartesian-axis-tick"><line orientation="left" width="70" height="630" stroke="#999" data-fg-d3bl14="0.8:3.10203:/src/app/App.tsx:132:15:3980:199:e:YAxis::::::DEHm" x="80" y="20" class="recharts-cartesian-axis-tick-line" fill="none" x1="144" y1="77.27272727272728" x2="150" y2="77.27272727272728"/><text orientation="left" width="70" height="630" stroke="none" data-fg-d3bl14="0.8:3.10203:/src/app/App.tsx:132:15:3980:199:e:YAxis::::::DEHm" font-size="13" x="142" y="77.27272727272728" class="recharts-text recharts-cartesian-axis-tick-value" text-anchor="end" fill="#666"><tspan x="142" dy="0.355em">2月</tspan></text></g><g class="recharts-layer recharts-cartesian-axis-tick"><line orientation="left" width="70" height="630" stroke="#999" data-fg-d3bl14="0.8:3.10203:/src/app/App.tsx:132:15:3980:199:e:YAxis::::::DEHm" x="80" y="20" class="recharts-cartesian-axis-tick-line" fill="none" x1="144" y1="134.54545454545456" x2="150" y2="134.54545454545456"/><text orientation="left" width="70" height="630" stroke="none" data-fg-d3bl14="0.8:3.10203:/src/app/App.tsx:132:15:3980:199:e:YAxis::::::DEHm" font-size="13" x="142" y="134.54545454545456" class="recharts-text recharts-cartesian-axis-tick-value" text-anchor="end" fill="#666"><tspan x="142" dy="0.355em">3月</tspan></text></g><g class="recharts-layer recharts-cartesian-axis-tick"><line orientation="left" width="70" height="630" stroke="#999" data-fg-d3bl14="0.8:3.10203:/src/app/App.tsx:132:15:3980:199:e:YAxis::::::DEHm" x="80" y="20" class="recharts-cartesian-axis-tick-line" fill="none" x1="144" y1="191.8181818181818" x2="150" y2="191.8181818181818"/><text orientation="left" width="70" height="630" stroke="none" data-fg-d3bl14="0.8:3.10203:/src/app/App.tsx:132:15:3980:199:e:YAxis::::::DEHm" font-size="13" x="142" y="191.8181818181818" class="recharts-text recharts-cartesian-axis-tick-value" text-anchor="end" fill="#666"><tspan x="142" dy="0.355em">4月</tspan></text></g><g class="recharts-layer recharts-cartesian-axis-tick"><line orientation="left" width="70" height="630" stroke="#999" data-fg-d3bl14="0.8:3.10203:/src/app/App.tsx:132:15:3980:199:e:YAxis::::::DEHm" x="80" y="20" class="recharts-cartesian-axis-tick-line" fill="none" x1="144" y1="249.0909090909091" x2="150" y2="249.0909090909091"/><text orientation="left" width="70" height="630" stroke="none" data-fg-d3bl14="0.8:3.10203:/src/app/App.tsx:132:15:3980:199:e:YAxis::::::DEHm" font-size="13" x="142" y="249.0909090909091" class="recharts-text recharts-cartesian-axis-tick-value" text-anchor="end" fill="#666"><tspan x="142" dy="0.355em">5月</tspan></text></g><g class="recharts-layer recharts-cartesian-axis-tick"><line orientation="left" width="70" height="630" stroke="#999" data-fg-d3bl14="0.8:3.10203:/src/app/App.tsx:132:15:3980:199:e:YAxis::::::DEHm" x="80" y="20" class="recharts-cartesian-axis-tick-line" fill="none" x1="144" y1="306.3636363636364" x2="150" y2="306.3636363636364"/><text orientation="left" width="70" height="630" stroke="none" data-fg-d3bl14="0.8:3.10203:/src/app/App.tsx:132:15:3980:199:e:YAxis::::::DEHm" font-size="13" x="142" y="306.3636363636364" class="recharts-text recharts-cartesian-axis-tick-value" text-anchor="end" fill="#666"><tspan x="142" dy="0.355em">6月</tspan></text></g><g class="recharts-layer recharts-cartesian-axis-tick"><line orientation="left" width="70" height="630" stroke="#999" data-fg-d3bl14="0.8:3.10203:/src/app/App.tsx:132:15:3980:199:e:YAxis::::::DEHm" x="80" y="20" class="recharts-cartesian-axis-tick-line" fill="none" x1="144" y1="363.6363636363636" x2="150" y2="363.6363636363636"/><text orientation="left" width="70" height="630" stroke="none" data-fg-d3bl14="0.8:3.10203:/src/app/App.tsx:132:15:3980:199:e:YAxis::::::DEHm" font-size="13" x="142" y="363.6363636363636" class="recharts-text recharts-cartesian-axis-tick-value" text-anchor="end" fill="#666"><tspan x="142" dy="0.355em">7月</tspan></text></g><g class="recharts-layer recharts-cartesian-axis-tick"><line orientation="left" width="70" height="630" stroke="#999" data-fg-d3bl14="0.8:3.10203:/src/app/App.tsx:132:15:3980:199:e:YAxis::::::DEHm" x="80" y="20" class="recharts-cartesian-axis-tick-line" fill="none" x1="144" y1="420.90909090909093" x2="150" y2="420.90909090909093"/><text orientation="left" width="70" height="630" stroke="none" data-fg-d3bl14="0.8:3.10203:/src/app/App.tsx:132:15:3980:199:e:YAxis::::::DEHm" font-size="13" x="142" y="420.90909090909093" class="recharts-text recharts-cartesian-axis-tick-value" text-anchor="end" fill="#666"><tspan x="142" dy="0.355em">8月</tspan></text></g><g class="recharts-layer recharts-cartesian-axis-tick"><line orientation="left" width="70" height="630" stroke="#999" data-fg-d3bl14="0.8:3.10203:/src/app/App.tsx:132:15:3980:199:e:YAxis::::::DEHm" x="80" y="20" class="recharts-cartesian-axis-tick-line" fill="none" x1="144" y1="478.1818181818182" x2="150" y2="478.1818181818182"/><text orientation="left" width="70" height="630" stroke="none" data-fg-d3bl14="0.8:3.10203:/src/app/App.tsx:132:15:3980:199:e:YAxis::::::DEHm" font-size="13" x="142" y="478.1818181818182" class="recharts-text recharts-cartesian-axis-tick-value" text-anchor="end" fill="#666"><tspan x="142" dy="0.355em">9月</tspan></text></g><g class="recharts-layer recharts-cartesian-axis-tick"><line orientation="left" width="70" height="630" stroke="#999" data-fg-d3bl14="0.8:3.10203:/src/app/App.tsx:132:15:3980:199:e:YAxis::::::DEHm" x="80" y="20" class="recharts-cartesian-axis-tick-line" fill="none" x1="144" y1="535.4545454545455" x2="150" y2="535.4545454545455"/><text orientation="left" width="70" height="630" stroke="none" data-fg-d3bl14="0.8:3.10203:/src/app/App.tsx:132:15:3980:199:e:YAxis::::::DEHm" font-size="13" x="142" y="535.4545454545455" class="recharts-text recharts-cartesian-axis-tick-value" text-anchor="end" fill="#666"><tspan x="142" dy="0.355em">10月</tspan></text></g><g class="recharts-layer recharts-cartesian-axis-tick"><line orientation="left" width="70" height="630" stroke="#999" data-fg-d3bl14="0.8:3.10203:/src/app/App.tsx:132:15:3980:199:e:YAxis::::::DEHm" x="80" y="20" class="recharts-cartesian-axis-tick-line" fill="none" x1="144" y1="592.7272727272727" x2="150" y2="592.7272727272727"/><text orientation="left" width="70" height="630" stroke="none" data-fg-d3bl14="0.8:3.10203:/src/app/App.tsx:132:15:3980:199:e:YAxis::::::DEHm" font-size="13" x="142" y="592.7272727272727" class="recharts-text recharts-cartesian-axis-tick-value" text-anchor="end" fill="#666"><tspan x="142" dy="0.355em">11月</tspan></text></g><g class="recharts-layer recharts-cartesian-axis-tick"><line orientation="left" width="70" height="630" stroke="#999" data-fg-d3bl14="0.8:3.10203:/src/app/App.tsx:132:15:3980:199:e:YAxis::::::DEHm" x="80" y="20" class="recharts-cartesian-axis-tick-line" fill="none" x1="144" y1="650" x2="150" y2="650"/><text orientation="left" width="70" height="630" stroke="none" data-fg-d3bl14="0.8:3.10203:/src/app/App.tsx:132:15:3980:199:e:YAxis::::::DEHm" font-size="13" x="142" y="650" class="recharts-text recharts-cartesian-axis-tick-value" text-anchor="end" fill="#666"><tspan x="142" dy="0.355em">12月</tspan></text></g></g></g><g class="recharts-layer recharts-line"><path stroke="#2563eb" stroke-width="3" name="売上" data-fg-d3bl16="0.8:3.10203:/src/app/App.tsx:148:15:4534:259:e:Line::::::BuTU" fill="none" width="310" height="630" class="recharts-curve recharts-line-curve" stroke-dasharray="736.5077514648438px 0px" d="M324.375,20C324.698,39.091,325.021,58.182,326.313,77.273C327.604,96.364,369.583,115.455,374.75,134.545C379.917,153.636,382.5,172.727,382.5,191.818C382.5,210.909,369.583,230,365.063,249.091C360.542,268.182,355.375,287.273,355.375,306.364C355.375,325.455,378.625,344.545,378.625,363.636C378.625,382.727,308.875,401.818,308.875,420.909C308.875,440,337.292,459.091,339.875,478.182C342.458,497.273,341.167,516.364,343.75,535.455C346.333,554.545,350.208,573.636,363.125,592.727C376.042,611.818,401.552,630.909,427.063,650"/><g class="recharts-layer"/><g class="recharts-layer recharts-line-dots"><circle r="6" stroke="#2563eb" stroke-width="3" name="売上" data-fg-d3bl16="0.8:3.10203:/src/app/App.tsx:148:15:4534:259:e:Line::::::BuTU" fill="#2563eb" width="310" height="630" cx="324.375" cy="20" class="recharts-dot recharts-line-dot"/><circle r="6" stroke="#2563eb" stroke-width="3" name="売上" data-fg-d3bl16="0.8:3.10203:/src/app/App.tsx:148:15:4534:259:e:Line::::::BuTU" fill="#2563eb" width="310" height="630" cx="326.3125" cy="77.27272727272728" class="recharts-dot recharts-line-dot"/><circle r="6" stroke="#2563eb" stroke-width="3" name="売上" data-fg-d3bl16="0.8:3.10203:/src/app/App.tsx:148:15:4534:259:e:Line::::::BuTU" fill="#2563eb" width="310" height="630" cx="374.75" cy="134.54545454545456" class="recharts-dot recharts-line-dot"/><circle r="6" stroke="#2563eb" stroke-width="3" name="売上" data-fg-d3bl16="0.8:3.10203:/src/app/App.tsx:148:15:4534:259:e:Line::::::BuTU" fill="#2563eb" width="310" height="630" cx="382.5" cy="191.8181818181818" class="recharts-dot recharts-line-dot"/><circle r="6" stroke="#2563eb" stroke-width="3" name="売上" data-fg-d3bl16="0.8:3.10203:/src/app/App.tsx:148:15:4534:259:e:Line::::::BuTU" fill="#2563eb" width="310" height="630" cx="365.0625" cy="249.0909090909091" class="recharts-dot recharts-line-dot"/><circle r="6" stroke="#2563eb" stroke-width="3" name="売上" data-fg-d3bl16="0.8:3.10203:/src/app/App.tsx:148:15:4534:259:e:Line::::::BuTU" fill="#2563eb" width="310" height="630" cx="355.375" cy="306.3636363636364" class="recharts-dot recharts-line-dot"/><circle r="6" stroke="#2563eb" stroke-width="3" name="売上" data-fg-d3bl16="0.8:3.10203:/src/app/App.tsx:148:15:4534:259:e:Line::::::BuTU" fill="#2563eb" width="310" height="630" cx="378.625" cy="363.6363636363636" class="recharts-dot recharts-line-dot"/><circle r="6" stroke="#2563eb" stroke-width="3" name="売上" data-fg-d3bl16="0.8:3.10203:/src/app/App.tsx:148:15:4534:259:e:Line::::::BuTU" fill="#2563eb" width="310" height="630" cx="308.875" cy="420.90909090909093" class="recharts-dot recharts-line-dot"/><circle r="6" stroke="#2563eb" stroke-width="3" name="売上" data-fg-d3bl16="0.8:3.10203:/src/app/App.tsx:148:15:4534:259:e:Line::::::BuTU" fill="#2563eb" width="310" height="630" cx="339.875" cy="478.1818181818182" class="recharts-dot recharts-line-dot"/><circle r="6" stroke="#2563eb" stroke-width="3" name="売上" data-fg-d3bl16="0.8:3.10203:/src/app/App.tsx:148:15:4534:259:e:Line::::::BuTU" fill="#2563eb" width="310" height="630" cx="343.75" cy="535.4545454545455" class="recharts-dot recharts-line-dot"/><circle r="6" stroke="#2563eb" stroke-width="3" name="売上" data-fg-d3bl16="0.8:3.10203:/src/app/App.tsx:148:15:4534:259:e:Line::::::BuTU" fill="#2563eb" width="310" height="630" cx="363.125" cy="592.7272727272727" class="recharts-dot recharts-line-dot"/><circle r="6" stroke="#2563eb" stroke-width="3" name="売上" data-fg-d3bl16="0.8:3.10203:/src/app/App.tsx:148:15:4534:259:e:Line::::::BuTU" fill="#2563eb" width="310" height="630" cx="427.0625" cy="650" class="recharts-dot recharts-line-dot"/></g></g></svg>