<svg width="1017" height="208" viewBox="0 0 1017 208" fill="none" xmlns="http://www.w3.org/2000/svg">
<path d="M1008.7 206C1008.98 206 1009.2 206.224 1009.2 206.5C1009.2 206.776 1008.98 207 1008.7 207H60.2C59.9239 207 59.7 206.776 59.7 206.5C59.7 206.224 59.9239 206 60.2 206H1008.7Z" fill="#58E1F3"/>
<path d="M1015.08 199.563C1015.27 199.367 1015.59 199.367 1015.78 199.563C1015.98 199.758 1015.98 200.074 1015.78 200.27L1009.27 206.78C1009.08 206.976 1008.76 206.976 1008.57 206.78C1008.37 206.585 1008.37 206.268 1008.57 206.073L1015.08 199.563Z" fill="#58E1F3"/>
<path d="M26.3801 205.63C26.6562 205.63 26.8801 205.854 26.8801 206.13C26.8801 206.406 26.6562 206.63 26.3801 206.63H7.58008C7.30394 206.63 7.08008 206.406 7.08008 206.13C7.08008 205.854 7.30394 205.63 7.58008 205.63H26.3801Z" fill="#58E1F3"/>
<path d="M52.5801 198.63C52.8562 198.63 53.0801 198.854 53.0801 199.13C53.0801 199.406 52.8562 199.63 52.5801 199.63H33.5801C33.3039 199.63 33.0801 199.406 33.0801 199.13C33.0801 198.854 33.3039 198.63 33.5801 198.63H52.5801Z" fill="#58E1F3"/>
<path d="M35.0801 201.63H51.0801V206.63H35.0801V201.63Z" fill="#58E1F3"/>
<path d="M35.0801 201.63L40.0801 206.63H30.0801L35.0801 201.63Z" fill="#58E1F3"/>
<path d="M51.0801 201.63L56.0801 206.63H46.0801L51.0801 201.63Z" fill="#58E1F3"/>
<path d="M0.353557 200.061C0.158295 199.865 0.158296 199.549 0.353558 199.354C0.54882 199.158 0.865402 199.158 1.06066 199.354L7.45457 205.747C7.64983 205.943 7.64983 206.259 7.45457 206.455C7.2593 206.65 6.94272 206.65 6.74746 206.455L0.353557 200.061Z" fill="#58E1F3"/>
<path d="M32.9475 198.834C33.1427 198.638 33.4593 198.638 33.6546 198.834C33.8499 199.029 33.8499 199.345 33.6546 199.541L26.8275 206.368C26.6322 206.563 26.3157 206.563 26.1204 206.368C25.9251 206.172 25.9251 205.856 26.1204 205.661L32.9475 198.834Z" fill="#58E1F3"/>
<path d="M52.4335 199.69C52.2383 199.495 52.2383 199.179 52.4335 198.983C52.6288 198.788 52.9454 198.788 53.1406 198.983L60.2377 206.08C60.433 206.276 60.433 206.592 60.2377 206.788C60.0425 206.983 59.7259 206.983 59.5306 206.788L52.4335 199.69Z" fill="#58E1F3"/>
<rect x="3" y="195" width="22" height="3" fill="#58E1F3" fill-opacity="0.42"/>
<rect x="25" y="195" width="17" height="2" fill="#58E1F3" fill-opacity="0.42"/>
<path d="M60 197H1007V204H60V197Z" fill="#58E1F3" fill-opacity="0.42"/>
<path d="M60.0111 196.975L52.94 196.975L60.0111 204.047L60.0111 196.975Z" fill="#58E1F3" fill-opacity="0.42"/>
<path d="M24.9956 196.995L32.0667 196.995L24.9956 204.067L24.9956 196.995Z" fill="#58E1F3" fill-opacity="0.42"/>
<path d="M9.00006 198H25.0001V204H9.00006V198Z" fill="#58E1F3" fill-opacity="0.42"/>
<path d="M8.99118 198L2.91006 198L8.99118 204.082L8.99118 198Z" fill="#58E1F3" fill-opacity="0.42"/>
<rect x="1007.15" y="197" width="5.85601" height="1" fill="#58E1F3" fill-opacity="0.42"/>
<path d="M1007.14 198.011L1013.07 198.011L1007.14 204.092L1007.14 198.011Z" fill="#58E1F3" fill-opacity="0.42"/>
<path d="M42.0009 188H1013V197H42.0009V188Z" fill="#58E1F3" fill-opacity="0.42"/>
<path d="M1016 185V186H40V185H1016Z" fill="#58E1F3"/>
<rect x="0.5" y="178.5" width="39" height="14" fill="#58E1F3" fill-opacity="0.21" stroke="#58E1F3"/>
<path d="M855.791 3C856.067 3 856.291 3.22386 856.291 3.5C856.291 3.77614 856.067 4 855.791 4H7.79079C7.51465 4 7.29077 3.77614 7.29077 3.5C7.29077 3.22386 7.51463 3 7.79077 3H855.791Z" fill="#58E1F3"/>
<path d="M1008.45 3.66367C1008.26 3.46841 1008.26 3.15183 1008.45 2.95657C1008.65 2.7613 1008.97 2.7613 1009.16 2.95657L1015.85 9.64149C1016.04 9.83675 1016.04 10.1533 1015.85 10.3486C1015.65 10.5439 1015.33 10.5439 1015.14 10.3486L1008.45 3.66367Z" fill="#58E1F3"/>
<path d="M1015 10.9965C1015 10.4872 1015.22 10.0742 1015.5 10.0742C1015.78 10.0742 1016 10.4872 1016 10.9965V199.152C1016 199.661 1015.78 200.074 1015.5 200.074C1015.22 200.074 1015 199.661 1015 199.152V10.9965Z" fill="#58E1F3"/>
<path d="M1008.56 2.75C1008.84 2.75 1009.06 2.97386 1009.06 3.25C1009.06 3.52614 1008.84 3.75 1008.56 3.75H972.561C972.285 3.75 972.061 3.52614 972.061 3.25C972.061 2.97386 972.285 2.75 972.561 2.75H1008.56Z" fill="#58E1F3"/>
<path d="M965.561 9.75C965.837 9.75 966.061 9.97386 966.061 10.25C966.061 10.5261 965.837 10.75 965.561 10.75H862.761C862.485 10.75 862.261 10.5261 862.261 10.25C862.261 9.97386 862.485 9.75 862.761 9.75H965.561Z" fill="#58E1F3"/>
<path d="M855.614 3.81071C855.419 3.61545 855.419 3.29887 855.614 3.10361C855.81 2.90835 856.126 2.90835 856.322 3.10361L862.946 9.7284C863.142 9.92366 863.142 10.2402 862.946 10.4355C862.751 10.6308 862.434 10.6308 862.239 10.4355L855.614 3.81071Z" fill="#58E1F3"/>
<path d="M972.109 2.97283C972.304 2.77757 972.621 2.77757 972.816 2.97283C973.012 3.16809 973.012 3.48468 972.816 3.67994L966.045 10.4512C965.85 10.6465 965.533 10.6465 965.338 10.4512C965.143 10.2559 965.143 9.93936 965.338 9.7441L972.109 2.97283Z" fill="#58E1F3"/>
<path d="M864.761 8.25L864.761 2.75L870.261 8.25L864.761 8.25Z" fill="#58E1F3"/>
<path d="M864.761 2.75L859.261 2.75L864.761 8.25L864.761 2.75Z" fill="#58E1F3"/>
<path d="M873.761 8.25L873.761 2.75L879.261 8.25L873.761 8.25Z" fill="#58E1F3"/>
<path d="M873.761 2.75L868.261 2.75L873.761 8.25L873.761 2.75Z" fill="#58E1F3"/>
<path d="M882.761 8.25L882.761 2.75L888.261 8.25L882.761 8.25Z" fill="#58E1F3"/>
<path d="M882.761 2.75L877.261 2.75L882.761 8.25L882.761 2.75Z" fill="#58E1F3"/>
<path d="M891.761 8.25L891.761 2.75L897.261 8.25L891.761 8.25Z" fill="#58E1F3"/>
<path d="M891.761 2.75L886.261 2.75L891.761 8.25L891.761 2.75Z" fill="#58E1F3"/>
<path d="M900.761 8.25L900.761 2.75L906.261 8.25L900.761 8.25Z" fill="#58E1F3"/>
<path d="M900.761 2.75L895.261 2.75L900.761 8.25L900.761 2.75Z" fill="#58E1F3"/>
<path d="M909.761 8.25L915.261 2.75L904.261 2.75L909.761 8.25Z" fill="#58E1F3"/>
<path d="M963.261 8.25L968.761 2.75L957.761 2.75L963.261 8.25Z" fill="#58E1F3"/>
<path d="M909.761 2.75H963.261V8.25H909.761V2.75Z" fill="#58E1F3"/>
<path d="M9.07764 6H855.078V12H9.07764V6Z" fill="#58E1F3" fill-opacity="0.42"/>
<path d="M855.053 12.0003L861.063 12.0003L855.053 5.98991L855.053 12.0003Z" fill="#58E1F3" fill-opacity="0.42"/>
<path d="M974.077 5H1007.08V12H974.077V5Z" fill="#58E1F3" fill-opacity="0.42"/>
<rect width="6" height="1" transform="matrix(1 0 0 -1 1007.08 12.002)" fill="#58E1F3" fill-opacity="0.42"/>
<path d="M1007.09 11.0113L1013.17 11.0113L1007.09 4.93014L1007.09 11.0113Z" fill="#58E1F3" fill-opacity="0.42"/>
<path d="M974.098 12.0014L967.027 12.0014L974.098 4.93029L974.098 12.0014Z" fill="#58E1F3" fill-opacity="0.42"/>
<path d="M7.19395 3.35342C7.38921 3.15815 7.70579 3.15815 7.90105 3.35342C8.09632 3.54868 8.09632 3.86526 7.90105 4.06052L1.1383 10.8233C0.943034 11.0185 0.626452 11.0185 0.43119 10.8233C0.235928 10.628 0.235928 10.3114 0.43119 10.1162L7.19395 3.35342Z" fill="#58E1F3"/>
<path d="M0 10.9334C0 10.4732 0.223858 10.1001 0.5 10.1001C0.776142 10.1001 1 10.4732 1 10.9334L1 199.267C1 199.727 0.776142 200.1 0.5 200.1C0.223858 200.1 0 199.727 0 199.267L0 10.9334Z" fill="#58E1F3"/>
<path d="M9.07727 12.0099L3.13757 12.0099L9.07727 6.07019L9.07727 12.0099Z" fill="#58E1F3" fill-opacity="0.42"/>
<path d="M42 12H1013V183H42V12Z" fill="#58E1F3" fill-opacity="0.42"/>
<path d="M3 12H42V176H3V12Z" fill="#58E1F3" fill-opacity="0.42"/>
</svg>
