<svg width="1017" height="20" viewBox="0 0 1017 20" fill="none" xmlns="http://www.w3.org/2000/svg">
<path d="M1016 0V1H0V0H1016Z" fill="#58E1F3"/>
<path d="M25.0731 9.54601L32.1442 9.54601L25.0731 16.6171L25.0731 9.54601Z" fill="#58E1F3" fill-opacity="0.42"/>
<path d="M9.07751 9.55029H25.0775V16.5503H9.07751V9.55029Z" fill="#58E1F3" fill-opacity="0.42"/>
<rect x="3.07751" y="9.55029" width="6" height="1" fill="#58E1F3" fill-opacity="0.42"/>
<path d="M9.06869 10.5507L2.98758 10.5507L9.06869 16.6319L9.06869 10.5507Z" fill="#58E1F3" fill-opacity="0.42"/>
<path d="M3.07751 2.55029H13.0775V9.55029H3.07751V2.55029Z" fill="#58E1F3" fill-opacity="0.42"/>
<path d="M1008.78 18.5474C1009.05 18.5474 1009.28 18.7712 1009.28 19.0474C1009.28 19.3235 1009.05 19.5474 1008.78 19.5474H60.2776C60.0015 19.5474 59.7776 19.3235 59.7776 19.0474C59.7776 18.7712 60.0014 18.5474 60.2776 18.5474H1008.78Z" fill="#58E1F3"/>
<path d="M60.0775 9.54736H1007.08V16.5474H60.0775V9.54736Z" fill="#58E1F3" fill-opacity="0.42"/>
<path d="M1015.16 12.1032C1015.36 11.908 1015.67 11.908 1015.87 12.1032C1016.06 12.2985 1016.06 12.6151 1015.87 12.8103L1009.35 19.3277C1009.15 19.5229 1008.84 19.5229 1008.64 19.3277C1008.45 19.1324 1008.45 18.8158 1008.64 18.6206L1015.16 12.1032Z" fill="#58E1F3"/>
<path d="M26.4576 18.1772C26.7337 18.1772 26.9576 18.4011 26.9576 18.6772C26.9576 18.9534 26.7337 19.1772 26.4576 19.1772H7.65759C7.38145 19.1772 7.15759 18.9534 7.15759 18.6772C7.15759 18.4011 7.38145 18.1772 7.65759 18.1772H26.4576Z" fill="#58E1F3"/>
<path d="M52.6576 11.1772C52.9337 11.1772 53.1576 11.4011 53.1576 11.6772C53.1576 11.9534 52.9337 12.1772 52.6576 12.1772L33.6576 12.1772C33.3814 12.1772 33.1576 11.9534 33.1576 11.6772C33.1576 11.4011 33.3815 11.1772 33.6576 11.1772L52.6576 11.1772Z" fill="#58E1F3"/>
<path d="M35.1576 14.1772H51.1576V19.1772H35.1576V14.1772Z" fill="#58E1F3"/>
<path d="M35.1576 14.1772L40.1576 19.1772H30.1576L35.1576 14.1772Z" fill="#58E1F3"/>
<path d="M51.1576 14.1772L56.1576 19.1772H46.1576L51.1576 14.1772Z" fill="#58E1F3"/>
<path d="M0.353593 12.5305C0.158331 12.3352 0.158331 12.0186 0.353593 11.8234C0.548855 11.6281 0.865438 11.6281 1.0607 11.8234L7.53214 18.2948C7.7274 18.4901 7.7274 18.8067 7.53214 19.0019C7.33688 19.1972 7.0203 19.1972 6.82504 19.0019L0.353593 12.5305Z" fill="#58E1F3"/>
<path d="M33.025 11.3809C33.2203 11.1856 33.5368 11.1856 33.7321 11.3809C33.9274 11.5761 33.9274 11.8927 33.7321 12.088L26.905 18.9151C26.7098 19.1103 26.3932 19.1103 26.1979 18.9151C26.0027 18.7198 26.0027 18.4032 26.1979 18.208L33.025 11.3809Z" fill="#58E1F3"/>
<path d="M52.511 12.2378C52.3158 12.0426 52.3158 11.726 52.511 11.5307C52.7063 11.3355 53.0229 11.3355 53.2181 11.5307L60.3152 18.6278C60.5105 18.8231 60.5105 19.1397 60.3152 19.3349C60.12 19.5302 59.8034 19.5302 59.6081 19.3349L52.511 12.2378Z" fill="#58E1F3"/>
<path d="M60.0986 9.53283L53.0276 9.53283L60.0986 16.6039L60.0986 9.53283Z" fill="#58E1F3" fill-opacity="0.42"/>
<rect x="1007.08" y="9.54736" width="6" height="1" fill="#58E1F3" fill-opacity="0.42"/>
<path d="M1007.07 10.5581L1013.15 10.5581L1007.07 16.6392L1007.07 10.5581Z" fill="#58E1F3" fill-opacity="0.42"/>
<path d="M0 0.500001C0 0.223858 0.223858 4.76837e-07 0.5 4.76837e-07C0.776142 4.76837e-07 1 0.223858 1 0.5L1 12.5C1 12.7761 0.776142 13 0.5 13C0.223858 13 0 12.7761 0 12.5L0 0.500001Z" fill="#58E1F3"/>
<path d="M1015 0.500001C1015 0.223858 1015.22 4.76837e-07 1015.5 4.76837e-07C1015.78 4.76837e-07 1016 0.223858 1016 0.5V12.5C1016 12.7761 1015.78 13 1015.5 13C1015.22 13 1015 12.7761 1015 12.5V0.500001Z" fill="#58E1F3"/>
<path d="M13.0775 2.5498H1013.08V9.5498H13.0775V2.5498Z" fill="#58E1F3" fill-opacity="0.42"/>
</svg>
