<svg width="457" height="146" viewBox="0 0 457 146" fill="none" xmlns="http://www.w3.org/2000/svg">
<rect x="10" y="11" width="185" height="122" fill="#58E1F3" fill-opacity="0.41"/>
<rect x="3" y="105" width="7" height="22" fill="#58E1F3" fill-opacity="0.41"/>
<rect x="3" y="17" width="7" height="22" fill="#58E1F3" fill-opacity="0.41"/>
<path d="M9.01042 17.0103L3.00001 17.0103L9.01042 10.9999L9.01042 17.0103Z" fill="#58E1F3" fill-opacity="0.41"/>
<rect x="9" y="11" width="1" height="6" fill="#58E1F3" fill-opacity="0.41"/>
<path d="M9.01042 127.005L3.00001 127.005L9.01042 133.016L9.01042 127.005Z" fill="#58E1F3" fill-opacity="0.41"/>
<rect width="1" height="6" transform="matrix(1 0 0 -1 9 133.016)" fill="#58E1F3" fill-opacity="0.41"/>
<path d="M447.005 127.005L453.016 127.005L447.005 133.016L447.005 127.005Z" fill="#58E1F3" fill-opacity="0.41"/>
<rect x="447.016" y="133.016" width="1" height="6" transform="rotate(180 447.016 133.016)" fill="#58E1F3" fill-opacity="0.41"/>
<path d="M446.995 17.0103L453.006 17.0103L446.995 10.9999L446.995 17.0103Z" fill="#58E1F3" fill-opacity="0.41"/>
<rect width="1" height="6" transform="matrix(-1 0 0 1 447.006 11)" fill="#58E1F3" fill-opacity="0.41"/>
<path d="M10.0211 38.9855L2.95004 38.9855L10.0211 46.0565L10.0211 38.9855Z" fill="#58E1F3" fill-opacity="0.41"/>
<path d="M445.985 39.0055L453.057 39.0055L445.985 46.0765L445.985 39.0055Z" fill="#58E1F3" fill-opacity="0.41"/>
<path d="M446.006 105.001L453.077 105.001L446.006 97.93L446.006 105.001Z" fill="#58E1F3" fill-opacity="0.41"/>
<path d="M10.0311 105.031L2.95999 105.031L10.0311 97.9601L10.0311 105.031Z" fill="#58E1F3" fill-opacity="0.41"/>
<path d="M194.996 17.9911L202.067 17.9911L194.996 10.92L194.996 17.9911Z" fill="#58E1F3" fill-opacity="0.41"/>
<path d="M261.021 17.9711L253.95 17.9711L261.021 10.9L261.021 17.9711Z" fill="#58E1F3" fill-opacity="0.41"/>
<path d="M261.021 125.995L253.95 125.995L261.021 133.067L261.021 125.995Z" fill="#58E1F3" fill-opacity="0.41"/>
<path d="M195.006 125.995L202.077 125.995L195.006 133.067L195.006 125.995Z" fill="#58E1F3" fill-opacity="0.41"/>
<rect x="446" y="17" width="7" height="22" fill="#58E1F3" fill-opacity="0.41"/>
<rect x="446" y="105" width="7" height="22" fill="#58E1F3" fill-opacity="0.41"/>
<rect x="195" y="18" width="66" height="108" fill="#58E1F3" fill-opacity="0.41"/>
<rect x="261" y="11" width="185" height="122" fill="#58E1F3" fill-opacity="0.41"/>
<path d="M196.5 8.23413C196.776 8.23413 197 8.45799 197 8.73413C197 9.01027 196.776 9.23413 196.5 9.23413H7.5C7.22386 9.23413 7 9.01027 7 8.73413C7 8.45799 7.22386 8.23413 7.5 8.23413H196.5Z" fill="#58E1F3"/>
<path d="M448.5 8.23413C448.776 8.23413 449 8.45799 449 8.73413C449 9.01027 448.776 9.23413 448.5 9.23413H259.5C259.224 9.23413 259 9.01027 259 8.73413C259 8.45799 259.224 8.23413 259.5 8.23413H448.5Z" fill="#58E1F3"/>
<path d="M0 15.7341C0 15.458 0.223858 15.2341 0.5 15.2341C0.776142 15.2341 1 15.458 1 15.7341L1 128.734C1 129.01 0.776142 129.234 0.5 129.234C0.223858 129.234 0 129.01 0 128.734L0 15.7341Z" fill="#58E1F3"/>
<path d="M6.95162 8.35355C7.14688 8.15829 7.46347 8.15829 7.65873 8.35355C7.85399 8.54882 7.85399 8.8654 7.65873 9.06066L1.06066 15.6587C0.865398 15.854 0.548816 15.854 0.353553 15.6587C0.158291 15.4635 0.158291 15.1469 0.353553 14.9516L6.95162 8.35355Z" fill="#58E1F3"/>
<path d="M449.061 8.58768C448.865 8.39242 448.549 8.39242 448.353 8.58768C448.158 8.78295 448.158 9.09953 448.353 9.29479L454.952 15.8929C455.147 16.0881 455.463 16.0881 455.659 15.8929C455.854 15.6976 455.854 15.381 455.659 15.1858L449.061 8.58768Z" fill="#58E1F3"/>
<path d="M454.952 128.588C455.147 128.392 455.463 128.392 455.659 128.588C455.854 128.783 455.854 129.1 455.659 129.295L449.061 135.893C448.865 136.088 448.549 136.088 448.354 135.893C448.158 135.698 448.158 135.381 448.354 135.186L454.952 128.588Z" fill="#58E1F3"/>
<path d="M252.5 15.2341C252.776 15.2341 253 15.458 253 15.7341C253 16.0103 252.776 16.2341 252.5 16.2341H203.5C203.224 16.2341 203 16.0103 203 15.7341C203 15.458 203.224 15.2341 203.5 15.2341H252.5Z" fill="#58E1F3"/>
<path d="M197.061 8.58768C196.865 8.39242 196.549 8.39242 196.354 8.58768C196.158 8.78295 196.158 9.09953 196.354 9.29479L202.952 15.8929C203.147 16.0881 203.463 16.0881 203.659 15.8929C203.854 15.6976 203.854 15.381 203.659 15.1858L197.061 8.58768Z" fill="#58E1F3"/>
<path d="M258.952 8.58768C259.147 8.39242 259.463 8.39242 259.659 8.58768C259.854 8.78295 259.854 9.09953 259.659 9.29479L253.061 15.8929C252.865 16.0881 252.549 16.0881 252.354 15.8929C252.158 15.6976 252.158 15.381 252.354 15.1858L258.952 8.58768Z" fill="#58E1F3"/>
<path d="M7 47.5122C7 47.2361 7.22386 47.0122 7.5 47.0122C7.77614 47.0122 8 47.2361 8 47.5122L8 96.5122C8 96.7883 7.77614 97.0122 7.5 97.0122C7.22386 97.0122 7 96.7883 7 96.5122L7 47.5122Z" fill="#58E1F3"/>
<path d="M0.353553 102.952C0.158291 103.147 0.158291 103.463 0.353553 103.659C0.548816 103.854 0.865398 103.854 1.06066 103.659L7.65873 97.0607C7.85399 96.8654 7.85399 96.5488 7.65873 96.3536C7.46347 96.1583 7.14688 96.1583 6.95162 96.3536L0.353553 102.952Z" fill="#58E1F3"/>
<path d="M0.353553 41.0606C0.158291 40.8653 0.158291 40.5487 0.353553 40.3535C0.548816 40.1582 0.865398 40.1582 1.06066 40.3535L7.65873 46.9515C7.85399 47.1468 7.85399 47.4634 7.65873 47.6587C7.46347 47.8539 7.14688 47.8539 6.95162 47.6587L0.353553 41.0606Z" fill="#58E1F3"/>
<path d="M449.012 47.5122C449.012 47.2361 448.788 47.0122 448.512 47.0122C448.236 47.0122 448.012 47.2361 448.012 47.5122V96.5122C448.012 96.7883 448.236 97.0122 448.512 97.0122C448.788 97.0122 449.012 96.7883 449.012 96.5122V47.5122Z" fill="#58E1F3"/>
<path d="M455.659 102.952C455.854 103.147 455.854 103.463 455.659 103.659C455.463 103.854 455.147 103.854 454.952 103.659L448.353 97.0607C448.158 96.8654 448.158 96.5488 448.353 96.3536C448.549 96.1583 448.865 96.1583 449.061 96.3536L455.659 102.952Z" fill="#58E1F3"/>
<path d="M455.659 41.0606C455.854 40.8653 455.854 40.5487 455.659 40.3535C455.463 40.1582 455.147 40.1582 454.952 40.3535L448.353 46.9515C448.158 47.1468 448.158 47.4634 448.353 47.6587C448.549 47.8539 448.865 47.8539 449.061 47.6587L455.659 41.0606Z" fill="#58E1F3"/>
<path d="M196.5 136.246C196.776 136.246 197 136.022 197 135.746C197 135.47 196.776 135.246 196.5 135.246H7.5C7.22386 135.246 7 135.47 7 135.746C7 136.022 7.22386 136.246 7.5 136.246H196.5Z" fill="#58E1F3"/>
<path d="M448.5 136.246C448.776 136.246 449 136.022 449 135.746C449 135.47 448.776 135.246 448.5 135.246H259.5C259.224 135.246 259 135.47 259 135.746C259 136.022 259.224 136.246 259.5 136.246H448.5Z" fill="#58E1F3"/>
<path d="M252.5 129.246C252.776 129.246 253 129.022 253 128.746C253 128.47 252.776 128.246 252.5 128.246H203.5C203.224 128.246 203 128.47 203 128.746C203 129.022 203.224 129.246 203.5 129.246H252.5Z" fill="#58E1F3"/>
<path d="M197.061 135.893C196.865 136.088 196.549 136.088 196.354 135.893C196.158 135.698 196.158 135.381 196.354 135.186L202.952 128.588C203.147 128.392 203.463 128.392 203.659 128.588C203.854 128.783 203.854 129.099 203.659 129.295L197.061 135.893Z" fill="#58E1F3"/>
<path d="M258.952 135.893C259.147 136.088 259.463 136.088 259.659 135.893C259.854 135.698 259.854 135.381 259.659 135.186L253.061 128.588C252.865 128.392 252.549 128.392 252.354 128.588C252.158 128.783 252.158 129.099 252.354 129.295L258.952 135.893Z" fill="#58E1F3"/>
<path d="M249.928 132.885C250.17 132.885 250.365 132.69 250.365 132.448C250.365 132.207 250.17 132.011 249.928 132.011H207.061C206.82 132.011 206.624 132.207 206.624 132.448C206.624 132.69 206.82 132.885 207.061 132.885H249.928Z" fill="#58E1F3"/>
<path d="M201.428 138.7C201.257 138.871 200.98 138.871 200.809 138.7C200.638 138.529 200.638 138.252 200.809 138.081L206.582 132.309C206.752 132.138 207.029 132.138 207.2 132.309C207.371 132.48 207.371 132.757 207.2 132.928L201.428 138.7Z" fill="#58E1F3"/>
<path d="M255.572 138.7C255.743 138.871 256.02 138.871 256.191 138.7C256.362 138.529 256.362 138.252 256.191 138.081L250.418 132.309C250.248 132.138 249.971 132.138 249.8 132.309C249.629 132.48 249.629 132.757 249.8 132.928L255.572 138.7Z" fill="#58E1F3"/>
<path d="M249.928 144.248C250.17 144.248 250.365 144.443 250.365 144.685C250.365 144.927 250.17 145.122 249.928 145.122H207.061C206.82 145.122 206.624 144.927 206.624 144.685C206.624 144.443 206.82 144.248 207.061 144.248H249.928Z" fill="#58E1F3"/>
<path d="M201.428 138.433C201.257 138.262 200.98 138.262 200.809 138.433C200.638 138.604 200.638 138.881 200.809 139.052L206.582 144.824C206.752 144.995 207.029 144.995 207.2 144.824C207.371 144.653 207.371 144.376 207.2 144.205L201.428 138.433Z" fill="#58E1F3"/>
<path d="M255.572 138.433C255.743 138.262 256.02 138.262 256.191 138.433C256.362 138.604 256.362 138.881 256.191 139.052L250.418 144.824C250.248 144.995 249.971 144.995 249.8 144.824C249.629 144.653 249.629 144.376 249.8 144.205L255.572 138.433Z" fill="#58E1F3"/>
<path d="M6.95162 135.893C7.14688 136.088 7.46347 136.088 7.65873 135.893C7.85399 135.698 7.85399 135.381 7.65873 135.186L1.06066 128.588C0.865398 128.392 0.548816 128.392 0.353553 128.588C0.158291 128.783 0.158291 129.099 0.353553 129.295L6.95162 135.893Z" fill="#58E1F3"/>
<path d="M455 15.7341C455 15.458 455.224 15.2341 455.5 15.2341C455.776 15.2341 456 15.458 456 15.7341V128.734C456 129.01 455.776 129.234 455.5 129.234C455.224 129.234 455 129.01 455 128.734V15.7341Z" fill="#58E1F3"/>
<circle cx="4" cy="73.5" r="1.5" fill="#58E1F3"/>
<circle cx="452" cy="73.5" r="1.5" fill="#58E1F3"/>
<path d="M448.85 73C448.933 73 449 73.0672 449 73.15C449 73.2328 448.933 73.3 448.85 73.3H7.14998C7.06714 73.3 7 73.2328 7 73.15C7 73.0672 7.06716 73 7.15 73H448.85Z" fill="#58E1F3"/>
<path d="M249.428 0.885498C249.67 0.885498 249.865 0.68966 249.865 0.448082C249.865 0.206504 249.67 0.0106661 249.428 0.0106661H206.561C206.32 0.0106661 206.124 0.206504 206.124 0.448082C206.124 0.68966 206.32 0.885498 206.561 0.885498H249.428Z" fill="#58E1F3"/>
<path d="M200.928 6.69991C200.757 6.87073 200.48 6.87073 200.309 6.69991C200.138 6.52909 200.138 6.25213 200.309 6.08131L206.082 0.309108C206.252 0.138287 206.529 0.138287 206.7 0.309108C206.871 0.47993 206.871 0.756886 206.7 0.927708L200.928 6.69991Z" fill="#58E1F3"/>
<path d="M255.072 6.69991C255.243 6.87073 255.52 6.87073 255.691 6.69991C255.862 6.52909 255.862 6.25213 255.691 6.08131L249.918 0.309108C249.748 0.138287 249.471 0.138287 249.3 0.309108C249.129 0.47993 249.129 0.756886 249.3 0.927708L255.072 6.69991Z" fill="#58E1F3"/>
<path d="M249.428 12.2476C249.67 12.2476 249.865 12.4434 249.865 12.685C249.865 12.9266 249.67 13.1224 249.428 13.1224H206.561C206.32 13.1224 206.124 12.9266 206.124 12.685C206.124 12.4434 206.32 12.2476 206.561 12.2476H249.428Z" fill="#58E1F3"/>
<path d="M200.928 6.43315C200.757 6.26233 200.48 6.26233 200.309 6.43315C200.138 6.60397 200.138 6.88093 200.309 7.05175L206.082 12.8239C206.252 12.9948 206.529 12.9948 206.7 12.8239C206.871 12.6531 206.871 12.3762 206.7 12.2053L200.928 6.43315Z" fill="#58E1F3"/>
<path d="M255.072 6.43315C255.243 6.26233 255.52 6.26233 255.691 6.43315C255.862 6.60397 255.862 6.88093 255.691 7.05175L249.918 12.8239C249.748 12.9948 249.471 12.9948 249.3 12.8239C249.129 12.6531 249.129 12.3762 249.3 12.2053L255.072 6.43315Z" fill="#58E1F3"/>
</svg>
