<svg width="471" height="132" viewBox="0 0 471 132" fill="none" xmlns="http://www.w3.org/2000/svg">
<path d="M26.3801 129.53C26.6563 129.53 26.8801 129.754 26.8801 130.03C26.8801 130.306 26.6563 130.53 26.3801 130.53H7.58011C7.30397 130.53 7.08011 130.306 7.08011 130.03C7.08011 129.754 7.30397 129.53 7.58011 129.53H26.3801Z" fill="#58E1F3"/>
<path d="M462.513 2.75C462.789 2.75 463.013 2.97386 463.013 3.25C463.013 3.52614 462.789 3.75 462.513 3.75H426.513C426.237 3.75 426.013 3.52614 426.013 3.25C426.013 2.97386 426.237 2.75 426.513 2.75H462.513Z" fill="#58E1F3"/>
<path d="M309.713 3C309.989 3 310.213 3.22386 310.213 3.5C310.213 3.77614 309.989 4 309.713 4H7.71328C7.43714 4 7.21329 3.77614 7.21329 3.5C7.21329 3.22386 7.43715 3 7.71329 3H309.713Z" fill="#58E1F3"/>
<path d="M419.513 9.75C419.789 9.75 420.013 9.97386 420.013 10.25C420.013 10.5261 419.789 10.75 419.513 10.75H316.713C316.437 10.75 316.213 10.5261 316.213 10.25C316.213 9.97386 316.437 9.75 316.713 9.75H419.513Z" fill="#58E1F3"/>
<path d="M462.2 130C462.476 130 462.7 130.224 462.7 130.5C462.7 130.776 462.476 131 462.2 131H60.1C59.8239 131 59.6 130.776 59.6 130.5C59.6 130.224 59.8239 130 60.1 130H462.2Z" fill="#58E1F3"/>
<path d="M309.567 3.81071C309.372 3.61545 309.372 3.29887 309.567 3.10361C309.762 2.90835 310.079 2.90835 310.274 3.10361L316.899 9.7284C317.094 9.92366 317.094 10.2402 316.899 10.4355C316.703 10.6308 316.387 10.6308 316.192 10.4355L309.567 3.81071Z" fill="#58E1F3"/>
<path d="M462.493 3.7364C462.297 3.54113 462.297 3.22455 462.493 3.02929C462.688 2.83403 463.004 2.83403 463.2 3.02929L470.005 9.83412C470.2 10.0294 470.2 10.346 470.005 10.5412C469.809 10.7365 469.493 10.7365 469.297 10.5412L462.493 3.7364Z" fill="#58E1F3"/>
<path d="M469.33 122.705C469.525 122.51 469.841 122.51 470.037 122.705C470.232 122.9 470.232 123.217 470.037 123.412L462.781 130.668C462.585 130.863 462.269 130.863 462.074 130.668C461.878 130.473 461.878 130.156 462.074 129.961L469.33 122.705Z" fill="#58E1F3"/>
<path d="M7.11634 3.25356C7.3116 3.0583 7.62819 3.0583 7.82345 3.25356C8.01871 3.44882 8.01871 3.76541 7.82345 3.96067L1.06069 10.7234C0.865428 10.9187 0.548846 10.9187 0.353584 10.7234C0.158322 10.5282 0.158322 10.2116 0.353584 10.0163L7.11634 3.25356Z" fill="#58E1F3"/>
<path d="M426.062 2.97259C426.257 2.77732 426.574 2.77732 426.769 2.97259C426.964 3.16785 426.964 3.48443 426.769 3.67969L419.998 10.451C419.802 10.6462 419.486 10.6462 419.29 10.451C419.095 10.2557 419.095 9.93912 419.29 9.74386L426.062 2.97259Z" fill="#58E1F3"/>
<path d="M52.5801 122.53C52.8563 122.53 53.0801 122.754 53.0801 123.03C53.0801 123.306 52.8563 123.53 52.5801 123.53H33.5801C33.304 123.53 33.0801 123.306 33.0801 123.03C33.0801 122.754 33.304 122.53 33.5801 122.53H52.5801Z" fill="#58E1F3"/>
<path d="M3.05176e-05 10.5C3.05176e-05 10.2239 0.223888 10 0.500031 10C0.776173 10 1.00003 10.2239 1.00003 10.5L1.00003 123.5C1.00003 123.776 0.776173 124 0.500031 124C0.223888 124 3.05176e-05 123.776 3.05176e-05 123.5L3.05176e-05 10.5Z" fill="#58E1F3"/>
<path d="M469.213 10.3025C469.213 9.99738 469.437 9.75005 469.713 9.75005C469.989 9.75005 470.213 9.99738 470.213 10.3025V122.998C470.213 123.303 469.989 123.55 469.713 123.55C469.437 123.55 469.213 123.303 469.213 122.998V10.3025Z" fill="#58E1F3"/>
<path d="M35.0801 125.53H51.0801V130.53H35.0801V125.53Z" fill="#58E1F3"/>
<path d="M35.0801 125.53L40.0801 130.53H30.0801L35.0801 125.53Z" fill="#58E1F3"/>
<path d="M51.0801 125.53L56.0801 130.53H46.0801L51.0801 125.53Z" fill="#58E1F3"/>
<path d="M0.353561 123.811C0.158299 123.615 0.158299 123.299 0.353561 123.103C0.548823 122.908 0.865406 122.908 1.06067 123.103L7.68537 129.728C7.88063 129.923 7.88063 130.24 7.68537 130.435C7.49011 130.631 7.17353 130.631 6.97826 130.435L0.353561 123.811Z" fill="#58E1F3"/>
<path d="M32.9475 122.734C33.1428 122.538 33.4594 122.538 33.6546 122.734C33.8499 122.929 33.8499 123.246 33.6546 123.441L26.8275 130.268C26.6323 130.463 26.3157 130.463 26.1204 130.268C25.9252 130.073 25.9252 129.756 26.1204 129.561L32.9475 122.734Z" fill="#58E1F3"/>
<path d="M52.4335 123.591C52.2383 123.395 52.2383 123.079 52.4335 122.884C52.6288 122.688 52.9454 122.688 53.1406 122.884L60.2377 129.981C60.433 130.176 60.433 130.492 60.2377 130.688C60.0425 130.883 59.7259 130.883 59.5306 130.688L52.4335 123.591Z" fill="#58E1F3"/>
<path d="M318.713 8.25L318.713 2.75L324.213 8.25L318.713 8.25Z" fill="#58E1F3"/>
<path d="M318.713 2.75L313.213 2.75L318.713 8.25L318.713 2.75Z" fill="#58E1F3"/>
<path d="M327.713 8.25L327.713 2.75L333.213 8.25L327.713 8.25Z" fill="#58E1F3"/>
<path d="M327.713 2.75L322.213 2.75L327.713 8.25L327.713 2.75Z" fill="#58E1F3"/>
<path d="M336.713 8.25L336.713 2.75L342.213 8.25L336.713 8.25Z" fill="#58E1F3"/>
<path d="M336.713 2.75L331.213 2.75L336.713 8.25L336.713 2.75Z" fill="#58E1F3"/>
<path d="M345.713 8.25L345.713 2.75L351.213 8.25L345.713 8.25Z" fill="#58E1F3"/>
<path d="M345.713 2.75L340.213 2.75L345.713 8.25L345.713 2.75Z" fill="#58E1F3"/>
<path d="M354.713 8.25L354.713 2.75L360.213 8.25L354.713 8.25Z" fill="#58E1F3"/>
<path d="M354.713 2.75L349.213 2.75L354.713 8.25L354.713 2.75Z" fill="#58E1F3"/>
<path d="M363.713 8.25L369.213 2.75L358.213 2.75L363.713 8.25Z" fill="#58E1F3"/>
<path d="M417.213 8.25L422.713 2.75L411.713 2.75L417.213 8.25Z" fill="#58E1F3"/>
<path d="M363.713 2.75H417.213V8.25H363.713V2.75Z" fill="#58E1F3"/>
<rect x="3.00003" y="121" width="6" height="1" fill="#58E1F3" fill-opacity="0.42"/>
<rect x="461.213" y="121" width="6" height="1" fill="#58E1F3" fill-opacity="0.42"/>
<path d="M9.00003 121H25V128H9.00003V121Z" fill="#58E1F3" fill-opacity="0.42"/>
<path d="M9.03006 6H309.03V12H9.03006V6Z" fill="#58E1F3" fill-opacity="0.42"/>
<path d="M427.213 5H461.213V12H427.213V5Z" fill="#58E1F3" fill-opacity="0.42"/>
<path d="M60.2133 121H461.213V128H60.2133V121Z" fill="#58E1F3" fill-opacity="0.42"/>
<path d="M8.99115 122L2.91003 122L8.99115 128.082L8.99115 122Z" fill="#58E1F3" fill-opacity="0.42"/>
<path d="M461.214 121.991L467.295 121.991L461.214 128.072L461.214 121.991Z" fill="#58E1F3" fill-opacity="0.42"/>
<rect width="6" height="1" transform="matrix(1 0 0 -1 461.203 12.0017)" fill="#58E1F3" fill-opacity="0.42"/>
<path d="M461.204 11.011L467.285 11.011L461.204 4.9299L461.204 11.011Z" fill="#58E1F3" fill-opacity="0.42"/>
<path d="M24.9856 120.995L32.0566 120.995L24.9856 128.067L24.9856 120.995Z" fill="#58E1F3" fill-opacity="0.42"/>
<path d="M60.2211 120.995L53.15 120.995L60.2211 128.067L60.2211 120.995Z" fill="#58E1F3" fill-opacity="0.42"/>
<path d="M309.035 12.0003L315.046 12.0003L309.035 5.98991L309.035 12.0003Z" fill="#58E1F3" fill-opacity="0.42"/>
<path d="M427.214 12.0011L420.143 12.0011L427.214 4.93004L427.214 12.0011Z" fill="#58E1F3" fill-opacity="0.42"/>
<path d="M9.0397 11.9896L3.10001 11.9896L9.0397 6.04993L9.0397 11.9896Z" fill="#58E1F3" fill-opacity="0.42"/>
<path d="M3.10004 12H467.3V121H3.10004V12Z" fill="#58E1F3" fill-opacity="0.42"/>
</svg>
