<svg width="1017" height="208" viewBox="0 0 1017 208" fill="none" xmlns="http://www.w3.org/2000/svg">
<path d="M855.791 3C856.067 3 856.291 3.22386 856.291 3.5C856.291 3.77614 856.067 4 855.791 4H7.79079C7.51465 4 7.29077 3.77614 7.29077 3.5C7.29077 3.22386 7.51463 3 7.79077 3H855.791Z" fill="#58E1F3"/>
<path d="M1008.45 3.66367C1008.26 3.46841 1008.26 3.15183 1008.45 2.95657C1008.65 2.7613 1008.97 2.7613 1009.16 2.95657L1015.85 9.64149C1016.04 9.83675 1016.04 10.1533 1015.85 10.3486C1015.65 10.5439 1015.33 10.5439 1015.14 10.3486L1008.45 3.66367Z" fill="#58E1F3"/>
<path d="M1015 11.0305C1015 10.5024 1015.22 10.0742 1015.5 10.0742C1015.78 10.0742 1016 10.5024 1016 11.0305V206.118C1016 206.646 1015.78 207.074 1015.5 207.074C1015.22 207.074 1015 206.646 1015 206.118V11.0305Z" fill="#58E1F3"/>
<path d="M1008.56 2.75C1008.84 2.75 1009.06 2.97386 1009.06 3.25C1009.06 3.52614 1008.84 3.75 1008.56 3.75H972.561C972.285 3.75 972.061 3.52614 972.061 3.25C972.061 2.97386 972.285 2.75 972.561 2.75H1008.56Z" fill="#58E1F3"/>
<path d="M965.561 9.75C965.837 9.75 966.061 9.97386 966.061 10.25C966.061 10.5261 965.837 10.75 965.561 10.75H862.761C862.485 10.75 862.261 10.5261 862.261 10.25C862.261 9.97386 862.485 9.75 862.761 9.75H965.561Z" fill="#58E1F3"/>
<path d="M855.614 3.81071C855.419 3.61545 855.419 3.29887 855.614 3.10361C855.81 2.90835 856.126 2.90835 856.322 3.10361L862.946 9.7284C863.142 9.92366 863.142 10.2402 862.946 10.4355C862.751 10.6308 862.434 10.6308 862.239 10.4355L855.614 3.81071Z" fill="#58E1F3"/>
<path d="M972.109 2.97283C972.304 2.77757 972.621 2.77757 972.816 2.97283C973.012 3.16809 973.012 3.48468 972.816 3.67994L966.045 10.4512C965.85 10.6465 965.533 10.6465 965.338 10.4512C965.143 10.2559 965.143 9.93936 965.338 9.7441L972.109 2.97283Z" fill="#58E1F3"/>
<path d="M864.761 8.25L864.761 2.75L870.261 8.25L864.761 8.25Z" fill="#58E1F3"/>
<path d="M864.761 2.75L859.261 2.75L864.761 8.25L864.761 2.75Z" fill="#58E1F3"/>
<path d="M873.761 8.25L873.761 2.75L879.261 8.25L873.761 8.25Z" fill="#58E1F3"/>
<path d="M873.761 2.75L868.261 2.75L873.761 8.25L873.761 2.75Z" fill="#58E1F3"/>
<path d="M882.761 8.25L882.761 2.75L888.261 8.25L882.761 8.25Z" fill="#58E1F3"/>
<path d="M882.761 2.75L877.261 2.75L882.761 8.25L882.761 2.75Z" fill="#58E1F3"/>
<path d="M891.761 8.25L891.761 2.75L897.261 8.25L891.761 8.25Z" fill="#58E1F3"/>
<path d="M891.761 2.75L886.261 2.75L891.761 8.25L891.761 2.75Z" fill="#58E1F3"/>
<path d="M900.761 8.25L900.761 2.75L906.261 8.25L900.761 8.25Z" fill="#58E1F3"/>
<path d="M900.761 2.75L895.261 2.75L900.761 8.25L900.761 2.75Z" fill="#58E1F3"/>
<path d="M909.761 8.25L915.261 2.75L904.261 2.75L909.761 8.25Z" fill="#58E1F3"/>
<path d="M963.261 8.25L968.761 2.75L957.761 2.75L963.261 8.25Z" fill="#58E1F3"/>
<path d="M909.761 2.75H963.261V8.25H909.761V2.75Z" fill="#58E1F3"/>
<path d="M9.07764 5.99976H855.078V11.9998H9.07764V5.99976Z" fill="#58E1F3" fill-opacity="0.42"/>
<path d="M855.053 12.0001L861.063 12.0001L855.053 5.98967L855.053 12.0001Z" fill="#58E1F3" fill-opacity="0.42"/>
<path d="M974.077 5H1007.08V12H974.077V5Z" fill="#58E1F3" fill-opacity="0.42"/>
<rect width="6" height="1" transform="matrix(1 0 0 -1 1007.08 12.002)" fill="#58E1F3" fill-opacity="0.42"/>
<path d="M1007.09 11.0113L1013.17 11.0113L1007.09 4.93014L1007.09 11.0113Z" fill="#58E1F3" fill-opacity="0.42"/>
<path d="M974.098 12.0014L967.027 12.0014L974.098 4.93029L974.098 12.0014Z" fill="#58E1F3" fill-opacity="0.42"/>
<path d="M7.19395 3.35342C7.38921 3.15815 7.70579 3.15815 7.90105 3.35342C8.09632 3.54868 8.09632 3.86526 7.90105 4.06052L1.1383 10.8233C0.943034 11.0185 0.626452 11.0185 0.43119 10.8233C0.235928 10.628 0.235928 10.3114 0.43119 10.1162L7.19395 3.35342Z" fill="#58E1F3"/>
<path d="M0 10.9641C0 10.4869 0.223858 10.1001 0.5 10.1001C0.776142 10.1001 1 10.4869 1 10.9641L1 206.236C1 206.713 0.776142 207.1 0.5 207.1C0.223858 207.1 0 206.713 0 206.236L0 10.9641Z" fill="#58E1F3"/>
<path d="M9.07727 12.0099L3.13757 12.0099L9.07727 6.07019L9.07727 12.0099Z" fill="#58E1F3" fill-opacity="0.42"/>
<path d="M13 12H1013V180H13V12Z" fill="#58E1F3" fill-opacity="0.42"/>
<path d="M3 12H13V180H3V12Z" fill="#58E1F3" fill-opacity="0.42"/>
<path d="M3.07764 199H1013.08V204H3.07764V199Z" fill="#58E1F3" fill-opacity="0.42"/>
<path d="M42 192H1013V199H42V192Z" fill="#58E1F3" fill-opacity="0.42"/>
<path d="M42 180H1013V187H42V180Z" fill="#58E1F3" fill-opacity="0.42"/>
<path d="M1016.08 189V190H40.0776V189H1016.08Z" fill="#58E1F3"/>
<path d="M1016 206V207H0V206H1016Z" fill="#58E1F3"/>
<rect x="0.5" y="182.5" width="39" height="14" fill="#58E1F3" fill-opacity="0.21" stroke="#58E1F3"/>
</svg>
