<svg width="1132" height="91" viewBox="0 0 1132 91" fill="none" xmlns="http://www.w3.org/2000/svg">
<path d="M1115.5 24C1115.78 24 1116 24.2239 1116 24.5C1116 24.7761 1115.78 25 1115.5 25L17.5 25C17.2239 25 17 24.7761 17 24.5C17 24.2239 17.2239 24 17.5 24L1115.5 24Z" fill="#58E1F3"/>
<path d="M16 0.499997C16 0.223855 16.2239 0 16.5 0C16.7762 0 17 0.223858 17 0.5L17 90.5C17 90.7761 16.7762 91 16.5 91C16.2239 91 16 90.7761 16 90.5L16 0.499997Z" fill="#58E1F3"/>
<path d="M3.05176e-05 7.5C3.05176e-05 7.22386 0.223888 7 0.500031 7C0.776173 7 1.00003 7.22386 1.00003 7.5L1.00003 83.5C1.00003 83.7761 0.776173 84 0.500031 84C0.223888 84 3.05176e-05 83.7761 3.05176e-05 83.5L3.05176e-05 7.5Z" fill="#58E1F3"/>
<path d="M6.71754 0.353531C6.91281 0.158268 7.22939 0.158268 7.42465 0.353531C7.61991 0.548793 7.61991 0.865375 7.42465 1.06064L1.06069 7.4246C0.865429 7.61986 0.548846 7.61986 0.353584 7.4246C0.158322 7.22934 0.158322 6.91275 0.353584 6.71749L6.71754 0.353531Z" fill="#58E1F3"/>
<path d="M0.353561 84.0608C0.158299 83.8655 0.158299 83.549 0.353561 83.3537C0.548823 83.1584 0.865406 83.1584 1.06067 83.3537L7.42463 89.7177C7.61989 89.9129 7.61989 90.2295 7.42463 90.4248C7.22937 90.62 6.91278 90.62 6.71752 90.4248L0.353561 84.0608Z" fill="#58E1F3"/>
<rect x="3.00003" y="9" width="11" height="74" fill="#58E1F3" fill-opacity="0.41"/>
<rect x="8.10013" y="4.06982" width="6" height="5" fill="#58E1F3" fill-opacity="0.41"/>
<path d="M8.09127 9.09113V3.99997L3.0001 9.09113H8.09127Z" fill="#58E1F3" fill-opacity="0.41"/>
<rect x="8.00021" y="82.9999" width="6" height="5" fill="#58E1F3" fill-opacity="0.41"/>
<path d="M8.00136 82.9955V88.0867L2.9102 82.9955H8.00136Z" fill="#58E1F3" fill-opacity="0.41"/>
<path d="M8.50003 31L11.5311 36.25H5.46894L8.50003 31Z" fill="#58E1F3"/>
<path d="M8.50003 63L11.5311 57.75H5.46894L8.50003 63Z" fill="#58E1F3"/>
<path d="M1115 0.5C1115 0.223858 1115.22 2.66245e-06 1115.5 2.66245e-06C1115.78 2.66245e-06 1116 0.22386 1116 0.500003V90.5C1116 90.7761 1115.78 91 1115.5 91C1115.22 91 1115 90.7761 1115 90.5V0.5Z" fill="#58E1F3"/>
<path d="M1125.06 0.349431C1124.87 0.156551 1124.55 0.156552 1124.35 0.349432C1124.16 0.542311 1124.16 0.855031 1124.35 1.04791L1130.74 7.33423C1130.93 7.52711 1131.25 7.5271 1131.45 7.33422C1131.64 7.14135 1131.64 6.82863 1131.45 6.63575L1125.06 0.349431Z" fill="#58E1F3"/>
<path d="M1131.45 84.0478C1131.64 83.8549 1131.64 83.5422 1131.45 83.3493C1131.25 83.1564 1130.93 83.1564 1130.74 83.3493L1124.35 89.6356C1124.16 89.8285 1124.16 90.1412 1124.35 90.3341C1124.55 90.527 1124.87 90.527 1125.06 90.3341L1131.45 84.0478Z" fill="#58E1F3"/>
<path d="M1132 7.4148C1132 7.13865 1131.78 6.9148 1131.5 6.9148C1131.22 6.9148 1131 7.13865 1131 7.4148V83.4148C1131 83.6909 1131.22 83.9148 1131.5 83.9148C1131.78 83.9148 1132 83.6909 1132 83.4148V7.4148Z" fill="#58E1F3"/>
<rect width="11" height="75.1" transform="matrix(-1 0 0 1 1129 8.00012)" fill="#58E1F3" fill-opacity="0.41"/>
<rect width="6" height="5" transform="matrix(-1 0 0 1 1124 3.07007)" fill="#58E1F3" fill-opacity="0.41"/>
<path d="M1124.01 8.09126V3.00009L1129.1 8.09126H1124.01Z" fill="#58E1F3" fill-opacity="0.41"/>
<rect width="6" height="5" transform="matrix(-1 0 0 1 1124 83.0701)" fill="#58E1F3" fill-opacity="0.41"/>
<path d="M1124 83.0657V88.1569L1129.09 83.0657H1124Z" fill="#58E1F3" fill-opacity="0.41"/>
<path d="M1120 46.5001L1125.25 43.469V49.5312L1120 46.5001Z" fill="#58E1F3"/>
<path d="M1124.5 0C1124.78 0 1125 0.223858 1125 0.5C1125 0.776142 1124.78 1 1124.5 1L7.50002 1C7.22387 1 7.00003 0.776142 7.00003 0.5C7.00003 0.223858 7.22389 0 7.50003 0L1124.5 0Z" fill="#58E1F3"/>
<path d="M1124.5 90C1124.78 90 1125 90.2239 1125 90.5C1125 90.7761 1124.78 91 1124.5 91H7.50002C7.22387 91 7.00003 90.7761 7.00003 90.5C7.00003 90.2239 7.22389 90 7.50003 90H1124.5Z" fill="#58E1F3"/>
<path d="M1115.5 24C1115.78 24 1116 24.2239 1116 24.5C1116 24.7761 1115.78 25 1115.5 25L17.5 25C17.2239 25 17 24.7761 17 24.5C17 24.2239 17.2239 24 17.5 24L1115.5 24Z" fill="#58E1F3"/>
<path d="M16 0.499997C16 0.223855 16.2239 0 16.5 0C16.7762 0 17 0.223858 17 0.5L17 90.5C17 90.7761 16.7762 91 16.5 91C16.2239 91 16 90.7761 16 90.5L16 0.499997Z" fill="#58E1F3"/>
<path d="M3.05176e-05 7.5C3.05176e-05 7.22386 0.223888 7 0.500031 7C0.776173 7 1.00003 7.22386 1.00003 7.5L1.00003 83.5C1.00003 83.7761 0.776173 84 0.500031 84C0.223888 84 3.05176e-05 83.7761 3.05176e-05 83.5L3.05176e-05 7.5Z" fill="#58E1F3"/>
<path d="M6.71754 0.353531C6.91281 0.158268 7.22939 0.158268 7.42465 0.353531C7.61991 0.548793 7.61991 0.865375 7.42465 1.06064L1.06069 7.4246C0.865429 7.61986 0.548846 7.61986 0.353584 7.4246C0.158322 7.22934 0.158322 6.91275 0.353584 6.71749L6.71754 0.353531Z" fill="#58E1F3"/>
<path d="M0.353561 84.0608C0.158299 83.8655 0.158299 83.549 0.353561 83.3537C0.548823 83.1584 0.865406 83.1584 1.06067 83.3537L7.42463 89.7177C7.61989 89.9129 7.61989 90.2295 7.42463 90.4248C7.22937 90.62 6.91278 90.62 6.71752 90.4248L0.353561 84.0608Z" fill="#58E1F3"/>
<rect x="3.00003" y="9" width="11" height="74" fill="#58E1F3" fill-opacity="0.41"/>
<rect x="8.10013" y="4.06982" width="6" height="5" fill="#58E1F3" fill-opacity="0.41"/>
<path d="M8.09127 9.09113V3.99997L3.0001 9.09113H8.09127Z" fill="#58E1F3" fill-opacity="0.41"/>
<rect x="8.00021" y="82.9999" width="6" height="5" fill="#58E1F3" fill-opacity="0.41"/>
<path d="M8.00136 82.9955V88.0867L2.9102 82.9955H8.00136Z" fill="#58E1F3" fill-opacity="0.41"/>
<path d="M8.50003 31L11.5311 36.25H5.46894L8.50003 31Z" fill="#58E1F3"/>
<path d="M8.50003 63L11.5311 57.75H5.46894L8.50003 63Z" fill="#58E1F3"/>
<path d="M1115 0.5C1115 0.223858 1115.22 2.66245e-06 1115.5 2.66245e-06C1115.78 2.66245e-06 1116 0.22386 1116 0.500003V90.5C1116 90.7761 1115.78 91 1115.5 91C1115.22 91 1115 90.7761 1115 90.5V0.5Z" fill="#58E1F3"/>
<path d="M1125.06 0.349431C1124.87 0.156551 1124.55 0.156552 1124.35 0.349432C1124.16 0.542311 1124.16 0.855031 1124.35 1.04791L1130.74 7.33423C1130.93 7.52711 1131.25 7.5271 1131.45 7.33422C1131.64 7.14135 1131.64 6.82863 1131.45 6.63575L1125.06 0.349431Z" fill="#58E1F3"/>
<path d="M1131.45 84.0478C1131.64 83.8549 1131.64 83.5422 1131.45 83.3493C1131.25 83.1564 1130.93 83.1564 1130.74 83.3493L1124.35 89.6356C1124.16 89.8285 1124.16 90.1412 1124.35 90.3341C1124.55 90.527 1124.87 90.527 1125.06 90.3341L1131.45 84.0478Z" fill="#58E1F3"/>
<path d="M1132 7.4148C1132 7.13865 1131.78 6.9148 1131.5 6.9148C1131.22 6.9148 1131 7.13865 1131 7.4148V83.4148C1131 83.6909 1131.22 83.9148 1131.5 83.9148C1131.78 83.9148 1132 83.6909 1132 83.4148V7.4148Z" fill="#58E1F3"/>
<rect width="11" height="75.1" transform="matrix(-1 0 0 1 1129 8.00012)" fill="#58E1F3" fill-opacity="0.41"/>
<rect width="6" height="5" transform="matrix(-1 0 0 1 1124 3.07007)" fill="#58E1F3" fill-opacity="0.41"/>
<path d="M1124.01 8.09126V3.00009L1129.1 8.09126H1124.01Z" fill="#58E1F3" fill-opacity="0.41"/>
<rect width="6" height="5" transform="matrix(-1 0 0 1 1124 83.0701)" fill="#58E1F3" fill-opacity="0.41"/>
<path d="M1124 83.0657V88.1569L1129.09 83.0657H1124Z" fill="#58E1F3" fill-opacity="0.41"/>
<path d="M1120 46.5001L1125.25 43.469V49.5312L1120 46.5001Z" fill="#58E1F3"/>
<path d="M1124.5 0C1124.78 0 1125 0.223858 1125 0.5C1125 0.776142 1124.78 1 1124.5 1L7.50002 1C7.22387 1 7.00003 0.776142 7.00003 0.5C7.00003 0.223858 7.22389 0 7.50003 0L1124.5 0Z" fill="#58E1F3"/>
<path d="M1124.5 90C1124.78 90 1125 90.2239 1125 90.5C1125 90.7761 1124.78 91 1124.5 91H7.50002C7.22387 91 7.00003 90.7761 7.00003 90.5C7.00003 90.2239 7.22389 90 7.50003 90H1124.5Z" fill="#58E1F3"/>
</svg>
