<svg width="757" height="91" viewBox="0 0 757 91" fill="none" xmlns="http://www.w3.org/2000/svg">
<path d="M740.75 25C740.888 25 741 25.1119 741 25.25C741 25.3881 740.888 25.5 740.75 25.5H16.25C16.1119 25.5 16 25.3881 16 25.25C16 25.1119 16.1119 25 16.25 25H740.75Z" fill="black"/>
<path d="M749.5 90C749.776 90 750 90.2239 750 90.5C750 90.7761 749.776 91 749.5 91H7.49999C7.22385 91 7 90.7761 7 90.5C7 90.2239 7.22386 90 7.5 90H749.5Z" fill="black"/>
<path d="M16 0.5C16 0.223858 16.2239 6.62054e-07 16.5 6.62054e-07C16.7761 6.62054e-07 17 0.223858 17 0.500001L17 81.5C17 81.7761 16.7761 82 16.5 82C16.2239 82 16 81.7761 16 81.5L16 0.5Z" fill="#58E1F3"/>
<path d="M0 7.5C0 7.22386 0.223858 7 0.5 7C0.776142 7 1 7.22386 1 7.5L1 74.5C1 74.7761 0.776142 75 0.5 75C0.223858 75 0 74.7761 0 74.5L0 7.5Z" fill="#58E1F3"/>
<path d="M6.71751 0.353531C6.91278 0.158268 7.22936 0.158268 7.42462 0.353531C7.61988 0.548793 7.61988 0.865375 7.42462 1.06064L1.06066 7.4246C0.865398 7.61986 0.548816 7.61986 0.353553 7.4246C0.158291 7.22934 0.158291 6.91275 0.353553 6.71749L6.71751 0.353531Z" fill="#58E1F3"/>
<path d="M0.353561 84.0608C0.158299 83.8655 0.158299 83.549 0.353561 83.3537C0.548823 83.1584 0.865406 83.1584 1.06067 83.3537L7.42463 89.7177C7.61989 89.9129 7.61989 90.2295 7.42463 90.4248C7.22937 90.62 6.91278 90.62 6.71752 90.4248L0.353561 84.0608Z" fill="black"/>
<rect x="3" y="9" width="11" height="74" fill="#727575"/>
<rect x="8.10001" y="4.07007" width="6" height="5" fill="#727575"/>
<rect x="8" y="83" width="6" height="5" fill="#727575"/>
<path d="M8.09118 9.09113V3.99997L3.00001 9.09113H8.09118Z" fill="#727575"/>
<path d="M8.00115 82.9955V88.0867L2.90998 82.9955H8.00115Z" fill="#727575"/>
<path d="M750.064 0.349309C749.868 0.156429 749.55 0.15643 749.355 0.34931C749.159 0.542189 749.159 0.854909 749.355 1.04779L755.736 7.3341C755.932 7.52698 756.25 7.52698 756.446 7.3341C756.641 7.14122 756.641 6.8285 756.446 6.63562L750.064 0.349309Z" fill="black"/>
<path d="M756.445 84.0476C756.641 83.8547 756.641 83.542 756.445 83.3491C756.25 83.1562 755.932 83.1562 755.736 83.3491L749.355 89.6354C749.159 89.8283 749.159 90.141 749.355 90.3339C749.55 90.5267 749.868 90.5267 750.064 90.3339L756.445 84.0476Z" fill="#58E1F3"/>
<path d="M757 7.41455C757 7.13841 756.776 6.91455 756.5 6.91455C756.224 6.91455 756 7.13841 756 7.41455V74.4146C756 74.6907 756.224 74.9146 756.5 74.9146C756.776 74.9146 757 74.6907 757 74.4146V7.41455Z" fill="black"/>
<path d="M740 0.5C740 0.223858 740.224 6.62054e-07 740.5 6.62054e-07C740.776 6.62054e-07 741 0.223858 741 0.500001V81.5C741 81.7761 740.776 82 740.5 82C740.224 82 740 81.7761 740 81.5V0.5Z" fill="#58E1F3"/>
<rect width="11" height="75.07" transform="matrix(-1 0 0 1 754 8)" fill="#58E1F3" fill-opacity="0.41"/>
<rect width="6" height="5" transform="matrix(-1 0 0 1 749 3.06982)" fill="#58E1F3" fill-opacity="0.41"/>
<path d="M749.009 8.09113V2.99997L754.1 8.09113H749.009Z" fill="#58E1F3" fill-opacity="0.41"/>
<rect width="6" height="5" transform="matrix(-1 0 0 1 749 83.0698)" fill="#58E1F3" fill-opacity="0.41"/>
<path d="M748.999 83.0656V88.1568L754.09 83.0656H748.999Z" fill="#58E1F3" fill-opacity="0.41"/>
<path d="M749.5 0C749.776 0 750 0.223858 750 0.5C750 0.776142 749.776 1 749.5 1L7.49999 1C7.22385 1 7 0.776142 7 0.5C7 0.223858 7.22386 0 7.5 0L749.5 0Z" fill="black"/>
<path d="M16 0.500003C16 0.223861 16.2239 1.76465e-06 16.5 1.76465e-06C16.7761 1.76465e-06 17 0.223859 17 0.500002L17 89.5C17 89.7761 16.7761 90 16.5 90C16.2239 90 16 89.7761 16 89.5L16 0.500003Z" fill="black"/>
<path d="M0 7.5C0 7.22386 0.223858 7 0.5 7C0.776142 7 1 7.22386 1 7.5L1 83.5C1 83.7761 0.776142 84 0.5 84C0.223858 84 0 83.7761 0 83.5L0 7.5Z" fill="black"/>
<path d="M6.71751 0.353531C6.91278 0.158268 7.22936 0.158268 7.42462 0.353531C7.61988 0.548793 7.61988 0.865375 7.42462 1.06064L1.06066 7.4246C0.865398 7.61986 0.548816 7.61986 0.353553 7.4246C0.158291 7.22934 0.158291 6.91275 0.353553 6.71749L6.71751 0.353531Z" fill="black"/>
<rect x="3" y="9" width="11" height="74" fill="#727575"/>
<rect x="8.10001" y="4.07007" width="6" height="5" fill="#727575"/>
<path d="M8.09118 9.09113V3.99997L3.00001 9.09113H8.09118Z" fill="#727575"/>
<path d="M8.09118 82.5456V87.6368L3.00001 82.5456H8.09118Z" fill="#727575"/>
<path d="M750.064 0.349309C749.868 0.156429 749.55 0.15643 749.355 0.34931C749.159 0.542189 749.159 0.854909 749.355 1.04779L755.736 7.3341C755.932 7.52698 756.25 7.52698 756.446 7.3341C756.641 7.14122 756.641 6.8285 756.446 6.63562L750.064 0.349309Z" fill="black"/>
<path d="M756.445 84.0476C756.641 83.8547 756.641 83.542 756.445 83.3491C756.25 83.1562 755.932 83.1562 755.736 83.3491L749.355 89.6354C749.159 89.8283 749.159 90.141 749.355 90.3339C749.55 90.5267 749.868 90.5267 750.064 90.3339L756.445 84.0476Z" fill="black"/>
<path d="M757 7.41455C757 7.13841 756.776 6.91455 756.5 6.91455C756.224 6.91455 756 7.13841 756 7.41455V83.4146C756 83.6907 756.224 83.9146 756.5 83.9146C756.776 83.9146 757 83.6907 757 83.4146V7.41455Z" fill="black"/>
<path d="M740 0.500003C740 0.223861 740.224 1.76465e-06 740.5 1.76465e-06C740.776 1.76465e-06 741 0.223859 741 0.500002V89.5C741 89.7761 740.776 90 740.5 90C740.224 90 740 89.7761 740 89.5V0.500003Z" fill="black"/>
<rect width="11" height="75.07" transform="matrix(-1 0 0 1 754 8)" fill="#727575"/>
<rect width="6" height="5" transform="matrix(-1 0 0 1 749 3.06982)" fill="#727575"/>
<path d="M749.009 8.09113V2.99997L754.1 8.09113H749.009Z" fill="#727575"/>
<rect width="6" height="5" transform="matrix(-1 0 0 1 749 83.0698)" fill="#727575"/>
<path d="M748.999 83.0656V88.1568L754.09 83.0656H748.999Z" fill="#727575"/>
<path d="M8.5 30L11.5311 35.25H5.46891L8.5 30Z" fill="white"/>
<path d="M8.5 62L11.5311 56.75H5.46891L8.5 62Z" fill="white"/>
<path d="M752 45.5L746.75 42.4689V48.5311L752 45.5Z" fill="white"/>
</svg>
