<svg width="757" height="82" viewBox="0 0 757 82" fill="none" xmlns="http://www.w3.org/2000/svg">
<path d="M740.75 24C740.888 24 741 24.1119 741 24.25C741 24.3881 740.888 24.5 740.75 24.5H16.25C16.1119 24.5 16 24.3881 16 24.25C16 24.1119 16.1119 24 16.25 24H740.75Z" fill="#58E1F3"/>
<path d="M749.5 81C749.776 81 750 81.2239 750 81.5C750 81.7761 749.776 82 749.5 82H7.49999C7.22385 82 7 81.7761 7 81.5C7 81.2239 7.22386 81 7.5 81H749.5Z" fill="black"/>
<path d="M16 0.5C16 0.223858 16.2239 6.62054e-07 16.5 6.62054e-07C16.7761 6.62054e-07 17 0.223858 17 0.500001L17 81.5C17 81.7761 16.7761 82 16.5 82C16.2239 82 16 81.7761 16 81.5L16 0.5Z" fill="#58E1F3"/>
<path d="M0 7.5C0 7.22386 0.223858 7 0.5 7C0.776142 7 1 7.22386 1 7.5L1 74.5C1 74.7761 0.776142 75 0.5 75C0.223858 75 0 74.7761 0 74.5L0 7.5Z" fill="#58E1F3"/>
<path d="M6.71751 0.353531C6.91278 0.158268 7.22936 0.158268 7.42462 0.353531C7.61988 0.548793 7.61988 0.865375 7.42462 1.06064L1.06066 7.4246C0.865398 7.61986 0.548816 7.61986 0.353553 7.4246C0.158291 7.22934 0.158291 6.91275 0.353553 6.71749L6.71751 0.353531Z" fill="#58E1F3"/>
<path d="M0.353561 75.0608C0.158299 74.8655 0.158299 74.549 0.353561 74.3537C0.548823 74.1584 0.865406 74.1584 1.06067 74.3537L7.42463 80.7177C7.61989 80.9129 7.61989 81.2295 7.42463 81.4248C7.22937 81.62 6.91278 81.62 6.71752 81.4248L0.353561 75.0608Z" fill="#58E1F3"/>
<rect x="3" y="9" width="11" height="64" fill="#58E1F3" fill-opacity="0.41"/>
<rect x="8.10001" y="4.07007" width="6" height="5" fill="#58E1F3" fill-opacity="0.41"/>
<rect x="8" y="73" width="6" height="5" fill="#58E1F3" fill-opacity="0.41"/>
<path d="M8.09118 9.09113V3.99997L3.00001 9.09113H8.09118Z" fill="#58E1F3" fill-opacity="0.41"/>
<path d="M8.00115 72.9955V78.0867L2.90998 72.9955H8.00115Z" fill="#58E1F3" fill-opacity="0.41"/>
<path d="M8.5 24L11.5311 29.25H5.46891L8.5 24Z" fill="#58E1F3"/>
<path d="M8.5 56L11.5311 50.75H5.46891L8.5 56Z" fill="#58E1F3"/>
<path d="M750.064 0.349309C749.868 0.156429 749.55 0.15643 749.355 0.34931C749.159 0.542189 749.159 0.854909 749.355 1.04779L755.736 7.3341C755.932 7.52698 756.25 7.52698 756.445 7.3341C756.641 7.14122 756.641 6.8285 756.445 6.63562L750.064 0.349309Z" fill="#58E1F3"/>
<path d="M756.445 75.0476C756.641 74.8547 756.641 74.542 756.445 74.3491C756.25 74.1562 755.932 74.1562 755.736 74.3491L749.355 80.6354C749.159 80.8283 749.159 81.141 749.355 81.3339C749.55 81.5267 749.868 81.5267 750.064 81.3339L756.445 75.0476Z" fill="#58E1F3"/>
<path d="M757 7.41455C757 7.13841 756.776 6.91455 756.5 6.91455C756.224 6.91455 756 7.13841 756 7.41455V74.4146C756 74.6907 756.224 74.9146 756.5 74.9146C756.776 74.9146 757 74.6907 757 74.4146V7.41455Z" fill="#58E1F3"/>
<path d="M740 0.5C740 0.223858 740.224 6.62054e-07 740.5 6.62054e-07C740.776 6.62054e-07 741 0.223858 741 0.500001V81.5C741 81.7761 740.776 82 740.5 82C740.224 82 740 81.7761 740 81.5V0.5Z" fill="#58E1F3"/>
<rect width="11" height="66" transform="matrix(-1 0 0 1 754 8)" fill="#58E1F3" fill-opacity="0.41"/>
<rect width="6" height="5" transform="matrix(-1 0 0 1 749 3.06982)" fill="#58E1F3" fill-opacity="0.41"/>
<path d="M749.009 8.09113V2.99997L754.1 8.09113H749.009Z" fill="#58E1F3" fill-opacity="0.41"/>
<rect width="6" height="5" transform="matrix(-1 0 0 1 749 74.0698)" fill="#58E1F3" fill-opacity="0.41"/>
<path d="M748.999 74.0656V79.1568L754.09 74.0656H748.999Z" fill="#58E1F3" fill-opacity="0.41"/>
<path d="M752 40.5L746.75 37.4689V43.5311L752 40.5Z" fill="#58E1F3"/>
<path d="M740.75 24C740.888 24 741 24.1119 741 24.25C741 24.3881 740.888 24.5 740.75 24.5H16.25C16.1119 24.5 16 24.3881 16 24.25C16 24.1119 16.1119 24 16.25 24H740.75Z" fill="black"/>
<path d="M749.5 0C749.776 0 750 0.223858 750 0.5C750 0.776142 749.776 1 749.5 1L7.49999 1C7.22385 1 7 0.776142 7 0.5C7 0.223858 7.22386 0 7.5 0L749.5 0Z" fill="black"/>
<path d="M16 0.5C16 0.223858 16.2239 6.62054e-07 16.5 6.62054e-07C16.7761 6.62054e-07 17 0.223858 17 0.500001L17 81.5C17 81.7761 16.7761 82 16.5 82C16.2239 82 16 81.7761 16 81.5L16 0.5Z" fill="black"/>
<path d="M0 7.5C0 7.22386 0.223858 7 0.5 7C0.776142 7 1 7.22386 1 7.5L1 74.5C1 74.7761 0.776142 75 0.5 75C0.223858 75 0 74.7761 0 74.5L0 7.5Z" fill="black"/>
<path d="M6.71751 0.353531C6.91278 0.158268 7.22936 0.158268 7.42462 0.353531C7.61988 0.548793 7.61988 0.865375 7.42462 1.06064L1.06066 7.4246C0.865398 7.61986 0.548816 7.61986 0.353553 7.4246C0.158291 7.22934 0.158291 6.91275 0.353553 6.71749L6.71751 0.353531Z" fill="black"/>
<path d="M0.353561 75.0608C0.158299 74.8655 0.158299 74.549 0.353561 74.3537C0.548823 74.1584 0.865406 74.1584 1.06067 74.3537L7.42463 80.7177C7.61989 80.9129 7.61989 81.2295 7.42463 81.4248C7.22937 81.62 6.91278 81.62 6.71752 81.4248L0.353561 75.0608Z" fill="black"/>
<rect x="3" y="9" width="11" height="64" fill="#727575"/>
<rect x="8.10001" y="4.07007" width="6" height="5" fill="#727575"/>
<rect x="8" y="73" width="6" height="5" fill="#727575"/>
<path d="M8.09118 9.09113V3.99997L3.00001 9.09113H8.09118Z" fill="#727575"/>
<path d="M8.00115 72.9955V78.0867L2.90998 72.9955H8.00115Z" fill="#727575"/>
<path d="M8.5 24L11.5311 29.25H5.46891L8.5 24Z" fill="white"/>
<path d="M8.5 56L11.5311 50.75H5.46891L8.5 56Z" fill="white"/>
<path d="M750.064 0.349309C749.868 0.156429 749.55 0.15643 749.355 0.34931C749.159 0.542189 749.159 0.854909 749.355 1.04779L755.736 7.3341C755.932 7.52698 756.25 7.52698 756.445 7.3341C756.641 7.14122 756.641 6.8285 756.445 6.63562L750.064 0.349309Z" fill="black"/>
<path d="M756.445 75.0476C756.641 74.8547 756.641 74.542 756.445 74.3491C756.25 74.1562 755.932 74.1562 755.736 74.3491L749.355 80.6354C749.159 80.8283 749.159 81.141 749.355 81.3339C749.55 81.5267 749.868 81.5267 750.064 81.3339L756.445 75.0476Z" fill="black"/>
<path d="M757 7.41455C757 7.13841 756.776 6.91455 756.5 6.91455C756.224 6.91455 756 7.13841 756 7.41455V74.4146C756 74.6907 756.224 74.9146 756.5 74.9146C756.776 74.9146 757 74.6907 757 74.4146V7.41455Z" fill="black"/>
<path d="M740 0.5C740 0.223858 740.224 6.62054e-07 740.5 6.62054e-07C740.776 6.62054e-07 741 0.223858 741 0.500001V81.5C741 81.7761 740.776 82 740.5 82C740.224 82 740 81.7761 740 81.5V0.5Z" fill="black"/>
<rect width="11" height="66" transform="matrix(-1 0 0 1 754 8)" fill="#727575"/>
<rect width="6" height="5" transform="matrix(-1 0 0 1 749 3.06982)" fill="#727575"/>
<path d="M749.009 8.09113V2.99997L754.1 8.09113H749.009Z" fill="#727575"/>
<rect width="6" height="5" transform="matrix(-1 0 0 1 749 74.0698)" fill="#727575"/>
<path d="M748.999 74.0656V79.1568L754.09 74.0656H748.999Z" fill="#727575"/>
<path d="M752 40.5L746.75 37.4689V43.5311L752 40.5Z" fill="white"/>
</svg>
