<svg width="30" height="30" viewBox="0 0 30 30" fill="none" xmlns="http://www.w3.org/2000/svg">
<path d="M14.9046 7.80078C10.9874 7.80078 7.79993 10.9883 7.79993 14.9055C7.79993 18.8227 10.9874 22.0102 14.9046 22.0102C18.8218 22.0102 22.0093 18.8227 22.0093 14.9055C22.0093 10.9883 18.8218 7.80078 14.9046 7.80078ZM14.9046 20.0102C12.0906 20.0102 9.79993 17.7195 9.79993 14.9055C9.79993 12.0914 12.0906 9.80078 14.9046 9.80078C17.7187 9.80078 20.0093 12.0914 20.0093 14.9055C20.0093 17.7195 17.7187 20.0102 14.9046 20.0102Z" fill="#58E1F3"/>
<path d="M28.0813 11.3422L26.55 11.2547C26.3531 10.65 26.1078 10.0562 25.8016 9.45938L26.8359 8.33438C27.5641 7.54219 27.5406 6.32656 26.7797 5.56406L24.4344 3.22031C23.6766 2.45938 22.4563 2.43594 21.6672 3.1625L20.5141 4.18281C19.9469 3.89375 19.3516 3.64688 18.7203 3.44531L18.6578 1.91719C18.6141 0.842188 17.7359 0 16.6594 0H13.3391C12.2641 0 11.3859 0.842188 11.3422 1.91875L11.2531 3.45C10.6484 3.64688 10.0531 3.89375 9.45938 4.2L8.33438 3.16406C7.54219 2.43594 6.32656 2.46094 5.56406 3.22031L3.22031 5.56562C2.45938 6.32656 2.43594 7.54375 3.1625 8.33281L4.18281 9.48594C3.89219 10.0562 3.64688 10.65 3.44531 11.2797L1.91719 11.3422C0.842188 11.3859 0 12.2641 0 13.3406V16.6609C0 17.7359 0.842188 18.6141 1.91875 18.6578L3.45 18.7469C3.64688 19.3516 3.89375 19.9469 4.2 20.5406L3.16406 21.6656C2.43594 22.4578 2.45938 23.6734 3.22031 24.4359L5.56562 26.7797C6.32656 27.5406 7.54531 27.5641 8.33281 26.8375L9.48594 25.8172C10.0531 26.1063 10.6484 26.3531 11.2797 26.5547L11.3422 28.0828C11.3859 29.1578 12.2641 30 13.3406 30H16.6609C17.7359 30 18.6141 29.1578 18.6578 28.0813L18.7469 26.55C19.3516 26.3531 19.9469 26.1063 20.5406 25.8L21.6656 26.8359C22.4578 27.5656 23.6734 27.5406 24.4359 26.7797L26.7797 24.4344C27.5406 23.6734 27.5641 22.4563 26.8375 21.6672L25.8172 20.5141C26.1078 19.9375 26.3656 19.3359 26.5547 18.7203L28.0828 18.6578C29.1578 18.6141 30 17.7359 30 16.6594V13.3391C30 12.2641 29.1578 11.3859 28.0813 11.3422ZM26.4734 16.7219C24.8594 16.7266 24.6109 18.4562 24.0344 19.6094C23.6437 20.3766 23.7594 21.275 24.3281 21.8938L25.3656 23.0219L23.0203 25.3641L21.8938 24.3281C20.7469 23.1922 19.3469 24.2422 18.1266 24.6484C17.3078 24.9156 16.7563 25.6313 16.7219 26.475L16.6609 28L13.3406 28.0016L13.2781 26.4734C13.2438 25.6313 12.6922 24.9156 11.8734 24.6469C10.65 24.2453 9.26562 23.1906 8.10625 24.3281L6.97813 25.3656L4.63594 23.0203L5.67188 21.8938C6.80781 20.75 5.75781 19.3469 5.35156 18.1266C5.08438 17.3078 4.36875 16.7563 3.525 16.7219L2 16.6609L1.99844 13.3406L3.52656 13.2781C4.36875 13.2438 5.08437 12.6922 5.35312 11.8734C5.75781 10.6562 6.80469 9.24531 5.67188 8.10625L4.63438 6.97813L6.97969 4.63594L8.10625 5.67188C9.25156 6.80781 10.6531 5.75625 11.8734 5.35156C12.6922 5.08438 13.2438 4.36875 13.2781 3.525L13.3406 2L16.6609 1.99844L16.7219 3.52656C16.7563 4.36875 17.3078 5.08437 18.1266 5.35312C19.3453 5.75938 20.7516 6.80312 21.8938 5.67188L23.0219 4.63438L25.3641 6.97969L24.3281 8.10625C23.7594 8.725 23.6437 9.62344 24.0344 10.3891C24.6094 11.5437 24.8625 13.2734 26.475 13.2781L28 13.3406L28.0016 16.6609L26.4734 16.7219Z" fill="#58E1F3"/>
</svg>
