<svg width="1013" height="30" viewBox="0 0 1013 30" fill="none" xmlns="http://www.w3.org/2000/svg">
<mask id="path-1-inside-1_1397_4" fill="white">
<path d="M998 0C1006.28 0 1013 6.71573 1013 15C1013 23.2843 1006.28 30 998 30C991.469 30 985.914 25.8258 983.854 20H778.146C776.086 25.8258 770.531 30 764 30C757.469 30 751.914 25.8258 749.854 20H529.146C527.086 25.8258 521.531 30 515 30C508.469 30 502.914 25.8258 500.854 20H278.305C276.245 25.8258 270.69 30 264.159 30C257.628 30 252.073 25.8258 250.014 20H29.1455C27.0862 25.8258 21.531 30 15 30C6.71573 30 0 23.2843 0 15C0 6.71573 6.71573 0 15 0C21.531 0 27.0862 4.1742 29.1455 10H250.014C252.073 4.1742 257.628 0 264.159 0C270.69 0 276.245 4.1742 278.305 10H500.854C502.914 4.1742 508.469 0 515 0C521.531 0 527.086 4.1742 529.146 10H749.854C751.914 4.1742 757.469 0 764 0C770.531 0 776.086 4.1742 778.146 10H983.854C985.914 4.1742 991.469 0 998 0Z"/>
</mask>
<path d="M998 0C1006.28 0 1013 6.71573 1013 15C1013 23.2843 1006.28 30 998 30C991.469 30 985.914 25.8258 983.854 20H778.146C776.086 25.8258 770.531 30 764 30C757.469 30 751.914 25.8258 749.854 20H529.146C527.086 25.8258 521.531 30 515 30C508.469 30 502.914 25.8258 500.854 20H278.305C276.245 25.8258 270.69 30 264.159 30C257.628 30 252.073 25.8258 250.014 20H29.1455C27.0862 25.8258 21.531 30 15 30C6.71573 30 0 23.2843 0 15C0 6.71573 6.71573 0 15 0C21.531 0 27.0862 4.1742 29.1455 10H250.014C252.073 4.1742 257.628 0 264.159 0C270.69 0 276.245 4.1742 278.305 10H500.854C502.914 4.1742 508.469 0 515 0C521.531 0 527.086 4.1742 529.146 10H749.854C751.914 4.1742 757.469 0 764 0C770.531 0 776.086 4.1742 778.146 10H983.854C985.914 4.1742 991.469 0 998 0Z" fill="#272727"/>
<path d="M983.854 20L984.797 19.6667L984.562 19H983.854V20ZM778.146 20V19H777.438L777.203 19.6667L778.146 20ZM749.854 20L750.797 19.6667L750.562 19H749.854V20ZM529.146 20V19H528.438L528.203 19.6667L529.146 20ZM500.854 20L501.797 19.6667L501.562 19H500.854V20ZM278.305 20V19H277.598L277.362 19.6667L278.305 20ZM250.014 20L250.956 19.6667L250.721 19H250.014V20ZM29.1455 20V19H28.4383L28.2027 19.6667L29.1455 20ZM29.1455 10L28.2027 10.3333L28.4383 11H29.1455V10ZM250.014 10V11H250.721L250.956 10.3333L250.014 10ZM278.305 10L277.362 10.3333L277.598 11H278.305V10ZM500.854 10V11H501.562L501.797 10.3333L500.854 10ZM529.146 10L528.203 10.3333L528.438 11H529.146V10ZM749.854 10V11H750.562L750.797 10.3333L749.854 10ZM778.146 10L777.203 10.3333L777.438 11H778.146V10ZM983.854 10V11H984.562L984.797 10.3333L983.854 10ZM998 0V1C1005.73 1 1012 7.26801 1012 15H1013H1014C1014 6.16344 1006.84 -1 998 -1V0ZM1013 15H1012C1012 22.732 1005.73 29 998 29V30V31C1006.84 31 1014 23.8366 1014 15H1013ZM998 30V29C991.906 29 986.72 25.1056 984.797 19.6667L983.854 20L982.912 20.3333C985.108 26.546 991.032 31 998 31V30ZM983.854 20V19H778.146V20V21H983.854V20ZM778.146 20L777.203 19.6667C775.28 25.1056 770.094 29 764 29V30V31C770.968 31 776.892 26.546 779.088 20.3333L778.146 20ZM764 30V29C757.906 29 752.72 25.1056 750.797 19.6667L749.854 20L748.912 20.3333C751.108 26.546 757.032 31 764 31V30ZM749.854 20V19H529.146V20V21H749.854V20ZM529.146 20L528.203 19.6667C526.28 25.1056 521.094 29 515 29V30V31C521.968 31 527.892 26.546 530.088 20.3333L529.146 20ZM515 30V29C508.906 29 503.72 25.1056 501.797 19.6667L500.854 20L499.912 20.3333C502.108 26.546 508.032 31 515 31V30ZM500.854 20V19H278.305V20V21H500.854V20ZM278.305 20L277.362 19.6667C275.439 25.1056 270.253 29 264.159 29V30V31C271.127 31 277.051 26.546 279.248 20.3333L278.305 20ZM264.159 30V29C258.065 29 252.879 25.1056 250.956 19.6667L250.014 20L249.071 20.3333C251.267 26.546 257.191 31 264.159 31V30ZM250.014 20V19H29.1455V20V21H250.014V20ZM29.1455 20L28.2027 19.6667C26.2802 25.1056 21.0939 29 15 29V30V31C21.968 31 27.8923 26.546 30.0883 20.3333L29.1455 20ZM15 30V29C7.26801 29 1 22.732 1 15H0H-1C-1 23.8366 6.16344 31 15 31V30ZM0 15H1C1 7.26801 7.26801 1 15 1V0V-1C6.16344 -1 -1 6.16344 -1 15H0ZM15 0V1C21.0939 1 26.2802 4.89441 28.2027 10.3333L29.1455 10L30.0883 9.66673C27.8923 3.45399 21.968 -1 15 -1V0ZM29.1455 10V11H250.014V10V9H29.1455V10ZM250.014 10L250.956 10.3333C252.879 4.89441 258.065 1 264.159 1V0V-1C257.191 -1 251.267 3.45399 249.071 9.66673L250.014 10ZM264.159 0V1C270.253 1 275.439 4.89441 277.362 10.3333L278.305 10L279.248 9.66673C277.051 3.45399 271.127 -1 264.159 -1V0ZM278.305 10V11H500.854V10V9H278.305V10ZM500.854 10L501.797 10.3333C503.72 4.89441 508.906 1 515 1V0V-1C508.032 -1 502.108 3.45399 499.912 9.66673L500.854 10ZM515 0V1C521.094 1 526.28 4.89441 528.203 10.3333L529.146 10L530.088 9.66673C527.892 3.45399 521.968 -1 515 -1V0ZM529.146 10V11H749.854V10V9H529.146V10ZM749.854 10L750.797 10.3333C752.72 4.89441 757.906 1 764 1V0V-1C757.032 -1 751.108 3.45399 748.912 9.66673L749.854 10ZM764 0V1C770.094 1 775.28 4.89441 777.203 10.3333L778.146 10L779.088 9.66673C776.892 3.45399 770.968 -1 764 -1V0ZM778.146 10V11H983.854V10V9H778.146V10ZM983.854 10L984.797 10.3333C986.72 4.89441 991.906 1 998 1V0V-1C991.032 -1 985.108 3.45399 982.912 9.66673L983.854 10Z" fill="#0F9403" mask="url(#path-1-inside-1_1397_4)"/>
<circle cx="15" cy="15" r="12" fill="#0F9403"/>
<circle cx="264" cy="15" r="12" fill="#0F9403"/>
<rect x="17" y="13" width="243" height="4" fill="#0F9403"/>
<circle cx="515" cy="15" r="12" fill="#0F9403"/>
<rect x="268" y="13" width="243" height="4" fill="#0F9403"/>
</svg>
