<svg width="123" height="916" viewBox="0 0 123 916" fill="none" xmlns="http://www.w3.org/2000/svg">
<path d="M1 908.5C1 908.776 0.776142 909 0.5 909C0.223858 909 0 908.776 0 908.5L0 7.5C0 7.22386 0.223858 7 0.5 7C0.776142 7 1 7.22386 1 7.5L1 908.5Z" fill="#58E1F3"/>
<path d="M123 908.5C123 908.776 122.776 909 122.5 909C122.224 909 122 908.776 122 908.5L122 7.5C122 7.22386 122.224 7 122.5 7C122.776 7 123 7.22386 123 7.5L123 908.5Z" fill="#58E1F3"/>
<path d="M122.5 38C122.776 38 123 38.2239 123 38.5C123 38.7761 122.776 39 122.5 39L0.5 39C0.223857 39 0 38.7761 0 38.5C0 38.2239 0.223858 38 0.5 38L122.5 38Z" fill="#58E1F3"/>
<path d="M115.278 0C115.554 0 115.778 0.223858 115.778 0.5C115.778 0.776142 115.554 1 115.278 1L7.2782 1C7.00206 1 6.7782 0.776142 6.7782 0.5C6.7782 0.223858 7.00206 0 7.2782 0L115.278 0Z" fill="#58E1F3"/>
<path d="M122.203 6.71751C122.398 6.91278 122.398 7.22936 122.203 7.42462C122.008 7.61988 121.691 7.61988 121.496 7.42462L115.132 1.06066C114.936 0.865398 114.936 0.548816 115.132 0.353553C115.327 0.158291 115.644 0.158291 115.839 0.353553L122.203 6.71751Z" fill="#58E1F3"/>
<path d="M6.71751 0.353775C6.91278 0.158513 7.22936 0.158513 7.42462 0.353775C7.61988 0.549037 7.61988 0.865619 7.42462 1.06088L1.06066 7.42484C0.865398 7.6201 0.548816 7.6201 0.353553 7.42484C0.158291 7.22958 0.158291 6.913 0.353553 6.71774L6.71751 0.353775Z" fill="#58E1F3"/>
<rect x="115" y="3" width="33" height="107" transform="rotate(90 115 3)" fill="#58E1F3" fill-opacity="0.41"/>
<rect x="120" y="8.1001" width="28" height="5" transform="rotate(90 120 8.1001)" fill="#58E1F3" fill-opacity="0.41"/>
<path d="M114.996 8.09099H120.087L114.996 2.99983V8.09099Z" fill="#58E1F3" fill-opacity="0.41"/>
<rect x="8.00003" y="8" width="28" height="5" transform="rotate(90 8.00003 8)" fill="#58E1F3" fill-opacity="0.41"/>
<path d="M7.99119 8.00115H2.90002L7.99119 2.90998V8.00115Z" fill="#58E1F3" fill-opacity="0.41"/>
<path d="M122.5 899C122.776 899 123 899.224 123 899.5C123 899.776 122.776 900 122.5 900H0.5C0.223857 900 0 899.776 0 899.5C0 899.224 0.223858 899 0.5 899H122.5Z" fill="#58E1F3"/>
<path d="M122.651 909.063C122.844 908.868 122.844 908.55 122.651 908.354C122.458 908.159 122.145 908.159 121.952 908.354L115.666 914.736C115.473 914.932 115.473 915.249 115.666 915.445C115.859 915.641 116.171 915.641 116.364 915.445L122.651 909.063Z" fill="#58E1F3"/>
<path d="M6.95227 915.445C7.14515 915.641 7.45786 915.641 7.65074 915.445C7.84362 915.25 7.84362 914.932 7.65074 914.736L1.36443 908.354C1.17155 908.159 0.858831 908.159 0.665951 908.354C0.473071 908.55 0.473071 908.868 0.665951 909.064L6.95227 915.445Z" fill="#58E1F3"/>
<path d="M115.585 916C115.861 916 116.085 915.776 116.085 915.5C116.085 915.224 115.861 915 115.585 915H7.58527C7.30913 915 7.08527 915.224 7.08527 915.5C7.08527 915.776 7.30912 916 7.58527 916H115.585Z" fill="#58E1F3"/>
<rect width="11" height="107" transform="matrix(0 -1 -1 0 114.9 913)" fill="#58E1F3" fill-opacity="0.41"/>
<rect width="6" height="5" transform="matrix(0 -1 -1 0 119.93 908)" fill="#58E1F3" fill-opacity="0.41"/>
<path d="M114.909 908.009H120L114.909 913.1V908.009Z" fill="#58E1F3" fill-opacity="0.41"/>
<rect width="6" height="5" transform="matrix(0 -1 -1 0 7.92999 908)" fill="#58E1F3" fill-opacity="0.41"/>
<path d="M7.93434 907.999H2.84317L7.93434 913.09V907.999Z" fill="#58E1F3" fill-opacity="0.41"/>
<path d="M1 908.5C1 908.776 0.776142 909 0.5 909C0.223858 909 0 908.776 0 908.5L0 7.5C0 7.22386 0.223858 7 0.5 7C0.776142 7 1 7.22386 1 7.5L1 908.5Z" fill="black"/>
<path d="M123 908.5C123 908.776 122.776 909 122.5 909C122.224 909 122 908.776 122 908.5L122 7.5C122 7.22386 122.224 7 122.5 7C122.776 7 123 7.22386 123 7.5L123 908.5Z" fill="black"/>
<path d="M122.5 38C122.776 38 123 38.2239 123 38.5C123 38.7761 122.776 39 122.5 39L0.5 39C0.223857 39 0 38.7761 0 38.5C0 38.2239 0.223858 38 0.5 38L122.5 38Z" fill="black"/>
<path d="M115.278 0C115.554 0 115.778 0.223858 115.778 0.5C115.778 0.776142 115.554 1 115.278 1L7.2782 1C7.00206 1 6.7782 0.776142 6.7782 0.5C6.7782 0.223858 7.00206 0 7.2782 0L115.278 0Z" fill="black"/>
<path d="M122.203 6.71751C122.398 6.91278 122.398 7.22936 122.203 7.42462C122.008 7.61988 121.691 7.61988 121.496 7.42462L115.132 1.06066C114.936 0.865398 114.936 0.548816 115.132 0.353553C115.327 0.158291 115.644 0.158291 115.839 0.353553L122.203 6.71751Z" fill="black"/>
<path d="M6.71751 0.353775C6.91278 0.158513 7.22936 0.158513 7.42462 0.353775C7.61988 0.549037 7.61988 0.865619 7.42462 1.06088L1.06066 7.42484C0.865398 7.6201 0.548816 7.6201 0.353553 7.42484C0.158291 7.22958 0.158291 6.913 0.353553 6.71774L6.71751 0.353775Z" fill="black"/>
<rect x="115" y="3" width="33" height="107" transform="rotate(90 115 3)" fill="#727575"/>
<rect x="120" y="8.1001" width="28" height="5" transform="rotate(90 120 8.1001)" fill="#727575"/>
<path d="M114.996 8.09099H120.087L114.996 2.99983V8.09099Z" fill="#727575"/>
<rect x="8.00003" y="8" width="28" height="5" transform="rotate(90 8.00003 8)" fill="#727575"/>
<path d="M7.99119 8.00115H2.90002L7.99119 2.90998V8.00115Z" fill="#727575"/>
<path d="M122.5 899C122.776 899 123 899.224 123 899.5C123 899.776 122.776 900 122.5 900H0.5C0.223857 900 0 899.776 0 899.5C0 899.224 0.223858 899 0.5 899H122.5Z" fill="black"/>
<path d="M122.651 909.063C122.844 908.868 122.844 908.55 122.651 908.354C122.458 908.159 122.145 908.159 121.952 908.354L115.666 914.736C115.473 914.932 115.473 915.249 115.666 915.445C115.859 915.641 116.171 915.641 116.364 915.445L122.651 909.063Z" fill="black"/>
<path d="M6.95227 915.445C7.14515 915.641 7.45786 915.641 7.65074 915.445C7.84362 915.25 7.84362 914.932 7.65074 914.736L1.36443 908.354C1.17155 908.159 0.858831 908.159 0.665951 908.354C0.473071 908.55 0.473071 908.868 0.665951 909.064L6.95227 915.445Z" fill="black"/>
<path d="M115.585 916C115.861 916 116.085 915.776 116.085 915.5C116.085 915.224 115.861 915 115.585 915H7.58527C7.30913 915 7.08527 915.224 7.08527 915.5C7.08527 915.776 7.30912 916 7.58527 916H115.585Z" fill="black"/>
<rect width="11" height="107" transform="matrix(0 -1 -1 0 114.9 913)" fill="#727575"/>
<rect width="6" height="5" transform="matrix(0 -1 -1 0 119.93 908)" fill="#727575"/>
<path d="M114.909 908.009H120L114.909 913.1V908.009Z" fill="#727575"/>
<rect width="6" height="5" transform="matrix(0 -1 -1 0 7.92996 908)" fill="#727575"/>
<path d="M7.9343 907.999H2.84314L7.9343 913.09V907.999Z" fill="#727575"/>
</svg>
